<?xml version="1.0" standalone="no"?><svg xmlns="http://www.w3.org/2000/svg" viewBox="0 0 1440 320"><path fill="#0b1b2d" fill-opacity="1" d="M0,64L30,64C60,64,120,64,180,85.3C240,107,300,149,360,170.7C420,192,480,192,540,160C600,128,660,64,720,58.7C780,53,840,107,900,149.3C960,192,1020,224,1080,234.7C1140,245,1200,235,1260,224C1320,213,1380,203,1410,197.3L1440,192L1440,0L1410,0C1380,0,1320,0,1260,0C1200,0,1140,0,1080,0C1020,0,960,0,900,0C840,0,780,0,720,0C660,0,600,0,540,0C480,0,420,0,360,0C300,0,240,0,180,0C120,0,60,0,30,0L0,0Z"></path></svg>