<?xml version="1.0" standalone="no"?>
<!DOCTYPE svg PUBLIC "-//W3C//DTD SVG 20010904//EN"
 "http://www.w3.org/TR/2001/REC-SVG-20010904/DTD/svg10.dtd">
<svg version="1.0" xmlns="http://www.w3.org/2000/svg"
 width="5.625rem" height="5.875rem" viewBox="0 0 500.000000 500.000000"
 preserveAspectRatio="xMidYMid meet">
<metadata>
Created by potrace 1.16, written by Peter Selinger 2001-2019
</metadata>
<g transform="translate(0.000000,500.000000) scale(0.100000,-0.100000)"
fill="#fff" stroke="none">
<path d="M2204 3140 c-72 -29 -137 -88 -164 -151 -18 -43 -21 -66 -18 -131 3
-74 7 -85 69 -206 l66 -128 -64 -34 c-183 -98 -276 -257 -243 -416 16 -78 40
-122 93 -175 65 -66 126 -92 222 -97 111 -6 180 21 255 98 l56 56 37 -68 38
-68 197 2 c183 3 197 4 200 22 5 25 -14 36 -63 36 l-40 0 -105 192 c-58 106
-106 197 -108 203 -3 14 47 78 84 108 15 12 50 29 78 38 37 13 52 23 54 38 2
12 -2 21 -10 22 -62 5 -135 -29 -198 -93 l-48 -48 -66 119 c-36 66 -66 123
-66 126 0 4 22 27 49 51 74 67 106 138 106 239 0 70 -4 87 -29 133 -31 55 -74
95 -136 127 -54 28 -181 31 -246 5z m221 -54 c130 -61 173 -198 105 -333 -26
-51 -94 -124 -104 -112 -17 22 -236 433 -232 436 2 3 22 11 43 18 59 22 131
18 188 -9z m-15 -528 c146 -265 289 -526 318 -580 l54 -99 -104 3 -103 3 -218
395 c-286 519 -281 508 -281 595 -1 59 3 77 27 118 15 26 31 47 35 47 4 0 126
-217 272 -482z m-96 -310 c124 -222 126 -228 112 -256 -17 -34 -100 -112 -118
-112 -7 0 -74 112 -149 248 -99 181 -133 251 -126 260 10 12 149 93 153 89 1
-1 59 -104 128 -229z m-200 -151 c69 -125 126 -232 126 -238 0 -20 -130 -6
-180 20 -159 82 -209 280 -108 428 13 18 26 29 30 25 4 -4 63 -109 132 -235z"/>
<path d="M3461 3140 c-167 -45 -323 -174 -400 -330 -52 -107 -71 -195 -71
-336 0 -286 134 -509 372 -618 97 -45 156 -56 294 -56 195 0 337 42 437 130
47 41 62 80 31 80 -9 0 -41 -20 -72 -44 -103 -81 -226 -116 -404 -116 -114 0
-193 16 -275 56 l-53 25 0 548 0 548 68 31 c91 42 174 56 280 49 204 -14 352
-120 352 -252 0 -36 21 -60 45 -51 13 5 15 30 13 178 -3 160 -4 173 -22 176
-27 6 -36 -15 -36 -80 l0 -58 -61 45 c-85 63 -166 87 -309 91 -92 3 -130 0
-189 -16z m-197 -1159 c-3 -3 -31 21 -61 54 -61 67 -114 168 -140 265 -24 88
-23 271 1 360 26 94 88 207 148 270 l53 55 3 -499 c1 -275 -1 -502 -4 -505z"/>
<path d="M807 3123 c-4 -3 -7 -64 -7 -135 0 -110 2 -130 16 -135 32 -12 44 25
44 129 l0 98 155 0 155 0 0 -600 0 -600 -52 0 c-61 0 -81 -10 -76 -36 3 -18
17 -19 273 -19 256 0 270 1 273 19 5 26 -15 36 -75 36 l-53 0 0 600 0 600 160
0 160 0 0 -110 c0 -90 3 -112 15 -116 35 -14 45 14 45 131 0 63 -3 120 -6 129
-5 14 -60 16 -513 16 -279 0 -511 -3 -514 -7z m593 -643 l0 -600 -90 0 -90 0
0 600 0 600 90 0 90 0 0 -600z"/>
</g>
</svg>
