<svg width="447" height="447" viewBox="0 0 447 447" fill="none" xmlns="http://www.w3.org/2000/svg">
<path d="M306.901 276.988V148.288H139.634V276.988H163.218V363.483L156.861 365.744V368.087H176.949V365.744L170.584 363.483V276.988H279.447V363.483L273.09 365.744V368.087H293.169V365.744L286.813 363.483V276.988H306.901Z" fill="#263238"/>
<path d="M304.702 150.076H141.842V272.885H304.702V150.076Z" fill="#FF4040"/>
<path opacity="0.9" d="M304.702 150.076H141.842V272.885H304.702V150.076Z" fill="white"/>
<path d="M259.635 224.376H254.504V229.508H259.635V224.376Z" fill="#263238"/>
<path d="M259.635 239.136H254.504V244.268H259.635V239.136Z" fill="#263238"/>
<path d="M259.635 253.896H254.504V259.028H259.635V253.896Z" fill="#FF4040"/>
<path opacity="0.7" d="M259.635 239.136H254.504V244.268H259.635V239.136Z" fill="white"/>
<path opacity="0.1" d="M242.864 170.834C242.923 170.834 242.98 170.811 243.022 170.769C243.064 170.727 243.088 170.67 243.088 170.611C243.088 170.552 243.064 170.495 243.022 170.453C242.98 170.411 242.923 170.387 242.864 170.387H240.808V162.002H242.864C242.923 162.002 242.98 161.978 243.022 161.936C243.064 161.894 243.088 161.837 243.088 161.778C243.088 161.719 243.064 161.662 243.022 161.62C242.98 161.578 242.923 161.555 242.864 161.555H240.808V159.257C240.808 159.198 240.784 159.141 240.742 159.099C240.7 159.057 240.644 159.034 240.584 159.034C240.525 159.034 240.468 159.057 240.426 159.099C240.384 159.141 240.361 159.198 240.361 159.257V161.555H231.215V159.257C231.215 159.198 231.192 159.141 231.15 159.099C231.108 159.057 231.051 159.034 230.992 159.034C230.932 159.034 230.876 159.057 230.834 159.099C230.792 159.141 230.768 159.198 230.768 159.257V161.555H221.632V159.257C221.632 159.198 221.608 159.141 221.566 159.099C221.524 159.057 221.467 159.034 221.408 159.034C221.349 159.034 221.292 159.057 221.25 159.099C221.208 159.141 221.185 159.198 221.185 159.257V161.555H212.039V159.257C212.039 159.198 212.015 159.141 211.973 159.099C211.932 159.057 211.875 159.034 211.815 159.034C211.756 159.034 211.699 159.057 211.657 159.099C211.615 159.141 211.592 159.198 211.592 159.257V161.555H202.455V159.257C202.455 159.198 202.432 159.141 202.39 159.099C202.348 159.057 202.291 159.034 202.232 159.034C202.172 159.034 202.116 159.057 202.074 159.099C202.032 159.141 202.008 159.198 202.008 159.257V161.555H192.872V159.257C192.872 159.198 192.848 159.141 192.806 159.099C192.764 159.057 192.707 159.034 192.648 159.034C192.589 159.034 192.532 159.057 192.49 159.099C192.448 159.141 192.425 159.198 192.425 159.257V161.555H183.27V159.257C183.27 159.198 183.246 159.141 183.205 159.099C183.163 159.057 183.106 159.034 183.046 159.034C182.987 159.034 182.93 159.057 182.888 159.099C182.847 159.141 182.823 159.198 182.823 159.257V161.555H173.695V159.257C173.695 159.198 173.672 159.141 173.63 159.099C173.588 159.057 173.531 159.034 173.472 159.034C173.412 159.034 173.356 159.057 173.314 159.099C173.272 159.141 173.248 159.198 173.248 159.257V161.555H164.112V159.257C164.112 159.198 164.088 159.141 164.046 159.099C164.004 159.057 163.947 159.034 163.888 159.034C163.829 159.034 163.772 159.057 163.73 159.099C163.688 159.141 163.665 159.198 163.665 159.257V161.555H154.662V162.002H163.682V170.387H154.662V170.834H163.682V179.229H154.662V179.676H163.682V188.062H154.662V188.509H163.682V196.903H154.662V197.35H163.682V206.362C163.682 206.421 163.706 206.478 163.748 206.52C163.79 206.562 163.847 206.585 163.906 206.585C163.965 206.585 164.022 206.562 164.064 206.52C164.106 206.478 164.129 206.421 164.129 206.362V197.35H173.266V206.362C173.266 206.421 173.29 206.478 173.332 206.52C173.374 206.562 173.43 206.585 173.49 206.585C173.549 206.585 173.606 206.562 173.648 206.52C173.69 206.478 173.713 206.421 173.713 206.362V197.35H182.859V206.362C182.859 206.421 182.882 206.478 182.924 206.52C182.966 206.562 183.023 206.585 183.082 206.585C183.142 206.585 183.198 206.562 183.24 206.52C183.282 206.478 183.306 206.421 183.306 206.362V197.35H192.442V206.362C192.442 206.421 192.466 206.478 192.508 206.52C192.55 206.562 192.607 206.585 192.666 206.585C192.725 206.585 192.782 206.562 192.824 206.52C192.866 206.478 192.889 206.421 192.889 206.362V197.35H202.044V206.362C202.044 206.421 202.068 206.478 202.109 206.52C202.151 206.562 202.208 206.585 202.267 206.585C202.327 206.585 202.384 206.562 202.426 206.52C202.467 206.478 202.491 206.421 202.491 206.362V197.35H211.628V206.362C211.628 206.421 211.651 206.478 211.693 206.52C211.735 206.562 211.792 206.585 211.851 206.585C211.91 206.585 211.967 206.562 212.009 206.52C212.051 206.478 212.075 206.421 212.075 206.362V197.35H221.22V206.362C221.22 206.421 221.244 206.478 221.286 206.52C221.328 206.562 221.385 206.585 221.444 206.585C221.503 206.585 221.56 206.562 221.602 206.52C221.644 206.478 221.667 206.421 221.667 206.362V197.35H230.804V206.362C230.804 206.421 230.828 206.478 230.869 206.52C230.911 206.562 230.968 206.585 231.027 206.585C231.087 206.585 231.144 206.562 231.186 206.52C231.227 206.478 231.251 206.421 231.251 206.362V197.35H240.397V206.362C240.397 206.421 240.42 206.478 240.462 206.52C240.504 206.562 240.561 206.585 240.62 206.585C240.679 206.585 240.736 206.562 240.778 206.52C240.82 206.478 240.844 206.421 240.844 206.362V197.35H242.9C242.959 197.35 243.016 197.327 243.058 197.285C243.1 197.243 243.123 197.186 243.123 197.127C243.123 197.068 243.1 197.011 243.058 196.969C243.016 196.927 242.959 196.903 242.9 196.903H240.844V188.509H242.9C242.959 188.509 243.016 188.485 243.058 188.443C243.1 188.401 243.123 188.345 243.123 188.285C243.123 188.226 243.1 188.169 243.058 188.127C243.016 188.085 242.959 188.062 242.9 188.062H240.844V179.694H242.9C242.959 179.694 243.016 179.67 243.058 179.629C243.1 179.587 243.123 179.53 243.123 179.47C243.123 179.411 243.1 179.354 243.058 179.312C243.016 179.271 242.959 179.247 242.9 179.247H240.844V170.852L242.864 170.834ZM173.248 196.903H164.112V188.509H173.248V196.903ZM173.248 188.062H164.112V179.694H173.248V188.062ZM173.248 179.229H164.112V170.834H173.248V179.229ZM173.248 170.387H164.112V162.002H173.248V170.387ZM182.841 196.903H173.695V188.509H182.841V196.903ZM182.841 188.062H173.695V179.694H182.841V188.062ZM182.841 179.229H173.695V170.834H182.841V179.229ZM182.841 170.387H173.695V162.002H182.841V170.387ZM192.425 196.903H183.27V188.509H192.407L192.425 196.903ZM192.425 188.062H183.27V179.694H192.407L192.425 188.062ZM192.425 179.229H183.27V170.834H192.407L192.425 179.229ZM192.425 170.387H183.27V162.002H192.407L192.425 170.387ZM202.044 196.903H192.872V188.509H202.044V196.903ZM202.044 188.062H192.872V179.694H202.044V188.062ZM202.044 179.229H192.872V170.834H202.044V179.229ZM202.044 170.387H192.872V162.002H202.044V170.387ZM211.628 196.903H202.455V188.509H211.592L211.628 196.903ZM211.628 188.062H202.455V179.694H211.592L211.628 188.062ZM211.628 179.229H202.455V170.834H211.592L211.628 179.229ZM211.628 170.387H202.455V162.002H211.592L211.628 170.387ZM221.22 196.903H212.039V188.509H221.185L221.22 196.903ZM221.22 188.062H212.039V179.694H221.185L221.22 188.062ZM221.22 179.229H212.039V170.834H221.185L221.22 179.229ZM221.22 170.387H212.039V162.002H221.185L221.22 170.387ZM230.804 196.903H221.632V188.509H230.768L230.804 196.903ZM230.804 188.062H221.632V179.694H230.768L230.804 188.062ZM230.804 179.229H221.632V170.834H230.768L230.804 179.229ZM230.804 170.387H221.632V162.002H230.768L230.804 170.387ZM240.397 196.903H231.215V188.509H240.361L240.397 196.903ZM240.397 188.062H231.215V179.694H240.361L240.397 188.062ZM240.397 179.229H231.215V170.834H240.361L240.397 179.229ZM240.397 170.387H231.215V162.002H240.361L240.397 170.387Z" fill="black"/>
<path d="M169.172 192.46H163.62V206.121H169.172V192.46Z" fill="#FF4040"/>
<path opacity="0.2" d="M169.181 192.46H167.428V206.121H169.181V192.46Z" fill="white"/>
<path d="M184.039 186.631H178.487V206.121H184.039V186.631Z" fill="#FF4040"/>
<path opacity="0.2" d="M184.039 186.631H182.287V206.121H184.039V186.631Z" fill="white"/>
<path d="M198.897 189.886H193.345V206.112H198.897V189.886Z" fill="#FF4040"/>
<path opacity="0.2" d="M198.906 189.886H197.154V206.112H198.906V189.886Z" fill="white"/>
<path d="M213.764 183.619H208.213V206.121H213.764V183.619Z" fill="#FF4040"/>
<path opacity="0.2" d="M213.764 183.619H212.012V206.121H213.764V183.619Z" fill="white"/>
<path d="M228.632 172.14H223.08V206.121H228.632V172.14Z" fill="#FF4040"/>
<path opacity="0.2" d="M228.632 172.14H226.879V206.121H228.632V172.14Z" fill="white"/>
<path d="M246.681 206.809H154.707C154.588 206.809 154.474 206.762 154.391 206.678C154.307 206.594 154.26 206.481 154.26 206.362V157.755C154.26 157.637 154.307 157.523 154.391 157.439C154.474 157.355 154.588 157.308 154.707 157.308C154.825 157.308 154.939 157.355 155.023 157.439C155.107 157.523 155.154 157.637 155.154 157.755V205.915H246.681C246.8 205.915 246.914 205.962 246.997 206.046C247.081 206.13 247.128 206.243 247.128 206.362C247.128 206.481 247.081 206.594 246.997 206.678C246.914 206.762 246.8 206.809 246.681 206.809Z" fill="#263238"/>
<path d="M157.076 194.892C156.999 194.892 156.923 194.873 156.855 194.835C156.788 194.798 156.732 194.743 156.691 194.677C156.632 194.574 156.616 194.451 156.646 194.336C156.676 194.221 156.75 194.122 156.852 194.061L166.168 188.518L180.311 182.662C180.395 182.635 180.486 182.635 180.57 182.662L196.081 185.889L210.752 179.694L233.513 162.261C233.608 162.192 233.727 162.163 233.844 162.18C233.96 162.196 234.066 162.258 234.139 162.35C234.211 162.444 234.243 162.563 234.228 162.68C234.213 162.797 234.152 162.904 234.058 162.976L211.252 180.4C211.221 180.422 211.188 180.439 211.154 180.454L196.296 186.712C196.211 186.739 196.121 186.739 196.036 186.712L180.525 183.485L166.57 189.26L157.344 194.812C157.266 194.868 157.172 194.896 157.076 194.892Z" fill="#263238"/>
<g opacity="0.5">
<path d="M246.681 206.809H154.707C154.588 206.809 154.474 206.762 154.391 206.678C154.307 206.594 154.26 206.481 154.26 206.362V157.755C154.26 157.637 154.307 157.523 154.391 157.439C154.474 157.355 154.588 157.308 154.707 157.308C154.825 157.308 154.939 157.355 155.023 157.439C155.107 157.523 155.154 157.637 155.154 157.755V205.915H246.681C246.8 205.915 246.914 205.962 246.997 206.046C247.081 206.13 247.128 206.243 247.128 206.362C247.128 206.481 247.081 206.594 246.997 206.678C246.914 206.762 246.8 206.809 246.681 206.809Z" fill="white"/>
</g>
<path d="M235.399 161.358L231.072 162.923L232.78 165.14L235.399 161.358Z" fill="#263238"/>
<path d="M272.143 183.52L277.694 201.749C274.807 202.628 271.753 202.809 268.783 202.277C265.812 201.745 263.011 200.515 260.608 198.689C258.206 196.862 256.272 194.492 254.965 191.772C253.657 189.052 253.015 186.061 253.089 183.044C253.164 180.027 253.953 177.072 255.393 174.42C256.833 171.768 258.883 169.496 261.372 167.79C263.862 166.085 266.721 164.995 269.714 164.611C272.707 164.226 275.748 164.557 278.588 165.578L272.143 183.52Z" fill="#FF4040"/>
<path d="M272.143 183.52L278.66 165.64C281.094 166.515 283.324 167.876 285.214 169.64C287.105 171.405 288.616 173.536 289.656 175.903L272.143 183.52Z" fill="#FF4040"/>
<path d="M272.143 183.52L289.656 175.984C290.715 178.44 291.245 181.092 291.211 183.767C291.177 186.442 290.58 189.079 289.459 191.508C288.339 193.937 286.719 196.103 284.706 197.864C282.692 199.625 280.331 200.943 277.775 201.731L272.143 183.52Z" fill="#FF4040"/>
<path opacity="0.7" d="M272.143 183.52L277.694 201.749C274.807 202.628 271.753 202.809 268.783 202.277C265.812 201.745 263.011 200.515 260.608 198.689C258.206 196.862 256.272 194.492 254.965 191.772C253.657 189.052 253.015 186.061 253.089 183.044C253.164 180.027 253.953 177.072 255.393 174.42C256.833 171.768 258.883 169.496 261.372 167.79C263.862 166.085 266.721 164.995 269.714 164.611C272.707 164.226 275.748 164.557 278.588 165.578L272.143 183.52Z" fill="white"/>
<path opacity="0.4" d="M272.143 183.52L289.656 175.984C290.715 178.44 291.245 181.092 291.211 183.767C291.177 186.442 290.58 189.079 289.459 191.508C288.339 193.937 286.719 196.103 284.706 197.864C282.692 199.625 280.331 200.943 277.775 201.731L272.143 183.52Z" fill="white"/>
<path opacity="0.1" d="M242.864 229.847C242.923 229.847 242.98 229.824 243.022 229.782C243.064 229.74 243.088 229.683 243.088 229.624C243.088 229.565 243.064 229.508 243.022 229.466C242.98 229.424 242.923 229.4 242.864 229.4H240.808V221.006H242.864C242.923 221.006 242.98 220.982 243.022 220.94C243.064 220.898 243.088 220.842 243.088 220.782C243.088 220.723 243.064 220.666 243.022 220.624C242.98 220.582 242.923 220.559 242.864 220.559H240.808V218.261C240.808 218.202 240.784 218.145 240.742 218.103C240.7 218.061 240.644 218.038 240.584 218.038C240.525 218.038 240.468 218.061 240.426 218.103C240.384 218.145 240.361 218.202 240.361 218.261V220.559H231.215V218.261C231.215 218.202 231.192 218.145 231.15 218.103C231.108 218.061 231.051 218.038 230.992 218.038C230.932 218.038 230.876 218.061 230.834 218.103C230.792 218.145 230.768 218.202 230.768 218.261V220.559H221.632V218.261C221.632 218.202 221.608 218.145 221.566 218.103C221.524 218.061 221.467 218.038 221.408 218.038C221.349 218.038 221.292 218.061 221.25 218.103C221.208 218.145 221.185 218.202 221.185 218.261V220.559H212.039V218.261C212.039 218.202 212.015 218.145 211.973 218.103C211.932 218.061 211.875 218.038 211.815 218.038C211.756 218.038 211.699 218.061 211.657 218.103C211.615 218.145 211.592 218.202 211.592 218.261V220.559H202.455V218.261C202.455 218.202 202.432 218.145 202.39 218.103C202.348 218.061 202.291 218.038 202.232 218.038C202.172 218.038 202.116 218.061 202.074 218.103C202.032 218.145 202.008 218.202 202.008 218.261V220.559H192.872V218.261C192.872 218.202 192.848 218.145 192.806 218.103C192.764 218.061 192.707 218.038 192.648 218.038C192.589 218.038 192.532 218.061 192.49 218.103C192.448 218.145 192.425 218.202 192.425 218.261V220.559H183.27V218.261C183.27 218.202 183.246 218.145 183.205 218.103C183.163 218.061 183.106 218.038 183.046 218.038C182.987 218.038 182.93 218.061 182.888 218.103C182.847 218.145 182.823 218.202 182.823 218.261V220.559H173.695V218.261C173.695 218.202 173.672 218.145 173.63 218.103C173.588 218.061 173.531 218.038 173.472 218.038C173.412 218.038 173.356 218.061 173.314 218.103C173.272 218.145 173.248 218.202 173.248 218.261V220.559H164.112V218.261C164.112 218.202 164.088 218.145 164.046 218.103C164.004 218.061 163.947 218.038 163.888 218.038C163.829 218.038 163.772 218.061 163.73 218.103C163.688 218.145 163.665 218.202 163.665 218.261V220.559H154.662V221.006H163.682V229.4H154.662V229.847H163.682V238.233H154.662V238.68H163.682V247.075H154.662V247.522H163.682V255.908H154.662V256.354H163.682V265.375C163.682 265.434 163.706 265.491 163.748 265.533C163.79 265.575 163.847 265.598 163.906 265.598C163.965 265.598 164.022 265.575 164.064 265.533C164.106 265.491 164.129 265.434 164.129 265.375V256.354H173.266V265.375C173.266 265.434 173.29 265.491 173.332 265.533C173.374 265.575 173.43 265.598 173.49 265.598C173.549 265.598 173.606 265.575 173.648 265.533C173.69 265.491 173.713 265.434 173.713 265.375V256.354H182.859V265.375C182.859 265.434 182.882 265.491 182.924 265.533C182.966 265.575 183.023 265.598 183.082 265.598C183.142 265.598 183.198 265.575 183.24 265.533C183.282 265.491 183.306 265.434 183.306 265.375V256.354H192.442V265.375C192.442 265.434 192.466 265.491 192.508 265.533C192.55 265.575 192.607 265.598 192.666 265.598C192.725 265.598 192.782 265.575 192.824 265.533C192.866 265.491 192.889 265.434 192.889 265.375V256.354H202.044V265.375C202.044 265.434 202.068 265.491 202.109 265.533C202.151 265.575 202.208 265.598 202.267 265.598C202.327 265.598 202.384 265.575 202.426 265.533C202.467 265.491 202.491 265.434 202.491 265.375V256.354H211.628V265.375C211.628 265.434 211.651 265.491 211.693 265.533C211.735 265.575 211.792 265.598 211.851 265.598C211.91 265.598 211.967 265.575 212.009 265.533C212.051 265.491 212.075 265.434 212.075 265.375V256.354H221.22V265.375C221.22 265.434 221.244 265.491 221.286 265.533C221.328 265.575 221.385 265.598 221.444 265.598C221.503 265.598 221.56 265.575 221.602 265.533C221.644 265.491 221.667 265.434 221.667 265.375V256.354H230.804V265.375C230.804 265.434 230.828 265.491 230.869 265.533C230.911 265.575 230.968 265.598 231.027 265.598C231.087 265.598 231.144 265.575 231.186 265.533C231.227 265.491 231.251 265.434 231.251 265.375V256.354H240.397V265.375C240.397 265.434 240.42 265.491 240.462 265.533C240.504 265.575 240.561 265.598 240.62 265.598C240.679 265.598 240.736 265.575 240.778 265.533C240.82 265.491 240.844 265.434 240.844 265.375V256.354H242.9C242.959 256.354 243.016 256.331 243.058 256.289C243.1 256.247 243.123 256.19 243.123 256.131C243.123 256.072 243.1 256.015 243.058 255.973C243.016 255.931 242.959 255.908 242.9 255.908H240.844V247.522H242.9C242.959 247.522 243.016 247.498 243.058 247.456C243.1 247.414 243.123 247.358 243.123 247.298C243.123 247.239 243.1 247.182 243.058 247.14C243.016 247.098 242.959 247.075 242.9 247.075H240.844V238.698H242.9C242.959 238.698 243.016 238.674 243.058 238.633C243.1 238.591 243.123 238.534 243.123 238.475C243.123 238.415 243.1 238.358 243.058 238.316C243.016 238.275 242.959 238.251 242.9 238.251H240.844V229.847H242.864ZM173.248 255.908H164.112V247.522H173.248V255.908ZM173.248 247.075H164.112V238.698H173.248V247.075ZM173.248 238.233H164.112V229.847H173.248V238.233ZM173.248 229.4H164.112V221.006H173.248V229.4ZM182.841 255.908H173.695V247.522H182.841V255.908ZM182.841 247.075H173.695V238.698H182.841V247.075ZM182.841 238.233H173.695V229.847H182.841V238.233ZM182.841 229.4H173.695V221.006H182.841V229.4ZM192.425 255.908H183.27V247.522H192.407L192.425 255.908ZM192.425 247.075H183.27V238.698H192.407L192.425 247.075ZM192.425 238.233H183.27V229.847H192.407L192.425 238.233ZM192.425 229.4H183.27V221.006H192.407L192.425 229.4ZM202.044 255.908H192.872V247.522H202.044V255.908ZM202.044 247.075H192.872V238.698H202.044V247.075ZM202.044 238.233H192.872V229.847H202.044V238.233ZM202.044 229.4H192.872V221.006H202.044V229.4ZM211.628 255.908H202.455V247.522H211.592L211.628 255.908ZM211.628 247.075H202.455V238.698H211.592L211.628 247.075ZM211.628 238.233H202.455V229.847H211.592L211.628 238.233ZM211.628 229.4H202.455V221.006H211.592L211.628 229.4ZM221.22 255.908H212.039V247.522H221.185L221.22 255.908ZM221.22 247.075H212.039V238.698H221.185L221.22 247.075ZM221.22 238.233H212.039V229.847H221.185L221.22 238.233ZM221.22 229.4H212.039V221.006H221.185L221.22 229.4ZM230.804 255.908H221.632V247.522H230.768L230.804 255.908ZM230.804 247.075H221.632V238.698H230.768L230.804 247.075ZM230.804 238.233H221.632V229.847H230.768L230.804 238.233ZM230.804 229.4H221.632V221.006H230.768L230.804 229.4ZM240.397 255.908H231.215V247.522H240.361L240.397 255.908ZM240.397 247.075H231.215V238.698H240.361L240.397 247.075ZM240.397 238.233H231.215V229.847H240.361L240.397 238.233ZM240.397 229.4H231.215V221.006H240.361L240.397 229.4Z" fill="black"/>
<path d="M154.662 255.907C154.662 255.907 160.5 247.075 164.129 247.075C167.956 247.075 169.985 252.001 173.266 252.001C176.547 252.001 178.889 241.156 182.859 241.156C186.828 241.156 188.911 254.638 192.889 254.638C196.868 254.638 200.649 238.233 204.851 238.233C209.053 238.233 209.5 243.391 211.61 243.391C214.14 243.391 216.08 229.4 221.649 229.4C227.013 229.4 227.013 238.233 231.233 238.233C235.453 238.233 234.559 224.376 240.826 224.376V265.598H154.707L154.662 255.907Z" fill="#FF4040"/>
<path opacity="0.4" d="M154.662 255.907C154.662 255.907 160.5 247.075 164.129 247.075C167.956 247.075 169.985 252.001 173.266 252.001C176.547 252.001 178.889 241.156 182.859 241.156C186.828 241.156 188.911 254.638 192.889 254.638C196.868 254.638 200.649 238.233 204.851 238.233C209.053 238.233 209.5 243.391 211.61 243.391C214.14 243.391 216.08 229.4 221.649 229.4C227.013 229.4 227.013 238.233 231.233 238.233C235.453 238.233 234.559 224.376 240.826 224.376V265.598H154.707L154.662 255.907Z" fill="white"/>
<path d="M155.02 256.158L154.269 255.666C154.51 255.291 160.285 246.628 164.103 246.628C166.257 246.628 167.822 248.005 169.333 249.31C170.62 250.445 171.827 251.518 173.239 251.518C174.652 251.518 175.921 249.077 177.173 246.717C178.8 243.749 180.481 240.674 182.832 240.674C185.183 240.674 186.631 244.071 188.25 247.674C189.608 250.713 191.164 254.155 192.863 254.155C194.561 254.155 196.528 250.025 198.227 246.377C200.354 241.907 202.366 237.75 204.78 237.75C207.462 237.75 208.749 239.655 209.759 241.183C210.376 242.077 210.904 242.909 211.547 242.909C212.191 242.909 213.335 240.316 214.149 238.233C215.829 234.085 217.921 228.918 221.578 228.918C224.68 228.918 226.128 231.6 227.407 233.969C228.506 235.998 229.454 237.75 231.162 237.75C232.726 237.75 233.557 235.068 234.443 232.163C235.632 228.292 236.981 223.893 240.754 223.893V224.787C237.643 224.787 236.445 228.676 235.292 232.431C234.317 235.623 233.388 238.689 231.162 238.689C228.936 238.689 227.746 236.526 226.62 234.434C225.404 232.181 224.144 229.856 221.578 229.856C218.52 229.856 216.554 234.711 214.971 238.618C213.746 241.648 212.861 243.847 211.547 243.847C210.421 243.847 209.759 242.81 209.008 241.72C208.114 240.298 207.006 238.689 204.78 238.689C202.929 238.689 200.864 243.007 199.031 246.816C196.993 251.071 195.062 255.094 192.818 255.094C190.574 255.094 189.009 251.688 187.382 248.085C186.024 245.054 184.477 241.612 182.787 241.612C181.098 241.612 179.345 244.572 177.915 247.191C176.485 249.81 175.027 252.457 173.195 252.457C171.362 252.457 170.048 251.223 168.725 250.025C167.401 248.827 165.909 247.531 164.094 247.531C161.331 247.522 156.602 253.753 155.02 256.158Z" fill="#FF4040"/>
<path d="M172.542 258.858C172.447 258.867 172.351 258.867 172.256 258.858C170.155 258.607 169.002 256.086 168.063 254.057C167.784 253.402 167.461 252.765 167.098 252.153C166.15 250.722 165.086 250.061 163.933 250.195C162.145 250.409 160.598 251.893 159.212 253.199L158.613 253.762C157.362 254.915 156.137 256.131 154.993 257.392L154.331 256.793C155.502 255.514 156.736 254.271 158.006 253.1C158.202 252.93 158.39 252.743 158.596 252.555C160.008 251.214 161.769 249.551 163.834 249.31C165.318 249.122 166.713 249.945 167.84 251.661C168.234 252.308 168.581 252.984 168.877 253.681C169.717 255.469 170.763 257.776 172.363 257.973C173.963 258.169 175.76 255.183 176.771 253.395C176.958 253.047 177.137 252.743 177.289 252.501C177.888 251.518 178.469 250.526 179.077 249.533C180.069 247.835 181.107 246.065 182.215 244.393C183.089 243.06 184.047 241.785 185.085 240.575C186.578 238.85 188.008 237.974 189.349 237.965C189.885 237.976 190.411 238.107 190.889 238.348C191.367 238.589 191.785 238.935 192.112 239.36C193.504 241.103 194.595 243.067 195.339 245.171C195.87 246.532 196.5 247.853 197.225 249.122C197.505 249.656 197.922 250.106 198.432 250.427C199.264 250.847 200.22 250.141 200.846 249.462C202.296 247.842 203.575 246.077 204.663 244.196L204.95 243.74C205.075 243.535 205.209 243.311 205.343 243.07C206.237 241.541 207.488 239.431 209.491 239.377C210.769 239.377 211.717 240.513 212.602 241.648C213.621 242.945 214.301 243.704 215.123 243.436C215.477 243.27 215.785 243.018 216.017 242.703C217.501 240.798 218.705 238.69 219.593 236.445C219.924 235.712 220.246 234.979 220.586 234.264C220.79 233.797 221.058 233.361 221.381 232.967C221.62 232.652 221.937 232.403 222.3 232.247C222.664 232.09 223.062 232.03 223.455 232.073C225.243 232.368 226.593 235.301 227.371 237.062C227.478 237.294 227.568 237.5 227.648 237.661L227.764 237.911C228.56 239.574 229.383 241.3 230.706 241.764C231.096 241.873 231.504 241.904 231.907 241.853C232.309 241.802 232.697 241.672 233.048 241.469L233.835 241.085C236.114 239.968 238.081 239.002 240.906 239.002V239.896C238.287 239.896 236.49 240.79 234.228 241.881L233.432 242.274C232.978 242.532 232.475 242.694 231.956 242.751C231.436 242.808 230.91 242.758 230.411 242.605C228.73 242.015 227.791 240.039 226.96 238.296L226.844 238.045C226.763 237.876 226.665 237.67 226.557 237.42C225.941 236.043 224.671 233.173 223.312 232.95C223.066 232.936 222.82 232.986 222.598 233.094C222.376 233.202 222.185 233.365 222.043 233.566C221.779 233.898 221.562 234.265 221.399 234.657C221.05 235.363 220.738 236.088 220.416 236.803C219.508 239.126 218.273 241.309 216.75 243.284C216.423 243.718 215.988 244.06 215.49 244.277C213.988 244.831 212.915 243.463 211.914 242.247C211.163 241.3 210.394 240.316 209.545 240.316C208.043 240.316 206.997 242.104 206.156 243.57C206.004 243.821 205.87 244.053 205.736 244.259L205.459 244.715C204.335 246.649 203.017 248.464 201.525 250.132C200.31 251.411 199.103 251.804 198.066 251.277C197.403 250.883 196.862 250.313 196.501 249.632C195.751 248.326 195.1 246.966 194.552 245.564C193.848 243.55 192.809 241.67 191.477 240.003C191.234 239.68 190.923 239.415 190.566 239.225C190.209 239.035 189.815 238.925 189.412 238.904C188.339 238.904 187.132 239.69 185.836 241.201C184.827 242.383 183.896 243.628 183.047 244.929C181.938 246.583 180.919 248.335 179.926 250.034C179.345 251.026 178.755 252.028 178.138 253.011C177.995 253.252 177.826 253.556 177.638 253.905C176.386 255.845 174.688 258.858 172.542 258.858Z" fill="#263238"/>
<path opacity="0.7" d="M172.542 258.858C172.447 258.867 172.351 258.867 172.256 258.858C170.155 258.607 169.002 256.086 168.063 254.057C167.784 253.402 167.461 252.765 167.098 252.153C166.15 250.722 165.086 250.061 163.933 250.195C162.145 250.409 160.598 251.893 159.212 253.199L158.613 253.762C157.362 254.915 156.137 256.131 154.993 257.392L154.331 256.793C155.502 255.514 156.736 254.271 158.006 253.1C158.202 252.93 158.39 252.743 158.596 252.555C160.008 251.214 161.769 249.551 163.834 249.31C165.318 249.122 166.713 249.945 167.84 251.661C168.234 252.308 168.581 252.984 168.877 253.681C169.717 255.469 170.763 257.776 172.363 257.973C173.963 258.169 175.76 255.183 176.771 253.395C176.958 253.047 177.137 252.743 177.289 252.501C177.888 251.518 178.469 250.526 179.077 249.533C180.069 247.835 181.107 246.065 182.215 244.393C183.089 243.06 184.047 241.785 185.085 240.575C186.578 238.85 188.008 237.974 189.349 237.965C189.885 237.976 190.411 238.107 190.889 238.348C191.367 238.589 191.785 238.935 192.112 239.36C193.504 241.103 194.595 243.067 195.339 245.171C195.87 246.532 196.5 247.853 197.225 249.122C197.505 249.656 197.922 250.106 198.432 250.427C199.264 250.847 200.22 250.141 200.846 249.462C202.296 247.842 203.575 246.077 204.663 244.196L204.95 243.74C205.075 243.535 205.209 243.311 205.343 243.07C206.237 241.541 207.488 239.431 209.491 239.377C210.769 239.377 211.717 240.513 212.602 241.648C213.621 242.945 214.301 243.704 215.123 243.436C215.477 243.27 215.785 243.018 216.017 242.703C217.501 240.798 218.705 238.69 219.593 236.445C219.924 235.712 220.246 234.979 220.586 234.264C220.79 233.797 221.058 233.361 221.381 232.967C221.62 232.652 221.937 232.403 222.3 232.247C222.664 232.09 223.062 232.03 223.455 232.073C225.243 232.368 226.593 235.301 227.371 237.062C227.478 237.294 227.568 237.5 227.648 237.661L227.764 237.911C228.56 239.574 229.383 241.3 230.706 241.764C231.096 241.873 231.504 241.904 231.907 241.853C232.309 241.802 232.697 241.672 233.048 241.469L233.835 241.085C236.114 239.968 238.081 239.002 240.906 239.002V239.896C238.287 239.896 236.49 240.79 234.228 241.881L233.432 242.274C232.978 242.532 232.475 242.694 231.956 242.751C231.436 242.808 230.91 242.758 230.411 242.605C228.73 242.015 227.791 240.039 226.96 238.296L226.844 238.045C226.763 237.876 226.665 237.67 226.557 237.42C225.941 236.043 224.671 233.173 223.312 232.95C223.066 232.936 222.82 232.986 222.598 233.094C222.376 233.202 222.185 233.365 222.043 233.566C221.779 233.898 221.562 234.265 221.399 234.657C221.05 235.363 220.738 236.088 220.416 236.803C219.508 239.126 218.273 241.309 216.75 243.284C216.423 243.718 215.988 244.06 215.49 244.277C213.988 244.831 212.915 243.463 211.914 242.247C211.163 241.3 210.394 240.316 209.545 240.316C208.043 240.316 206.997 242.104 206.156 243.57C206.004 243.821 205.87 244.053 205.736 244.259L205.459 244.715C204.335 246.649 203.017 248.464 201.525 250.132C200.31 251.411 199.103 251.804 198.066 251.277C197.403 250.883 196.862 250.313 196.501 249.632C195.751 248.326 195.1 246.966 194.552 245.564C193.848 243.55 192.809 241.67 191.477 240.003C191.234 239.68 190.923 239.415 190.566 239.225C190.209 239.035 189.815 238.925 189.412 238.904C188.339 238.904 187.132 239.69 185.836 241.201C184.827 242.383 183.896 243.628 183.047 244.929C181.938 246.583 180.919 248.335 179.926 250.034C179.345 251.026 178.755 252.028 178.138 253.011C177.995 253.252 177.826 253.556 177.638 253.905C176.386 255.845 174.688 258.858 172.542 258.858Z" fill="white"/>
<path d="M154.939 256.247L154.349 255.577C154.546 255.398 159.23 251.268 163.602 251.268C165.411 251.291 167.197 251.67 168.859 252.385C170.243 252.998 171.735 253.332 173.248 253.369C175.036 253.369 176.654 251.035 178.219 248.773C179.783 246.512 181.16 244.536 182.841 244.536C184.522 244.536 185.907 246.109 187.418 247.772C188.929 249.435 190.601 251.268 192.425 251.268C194.248 251.268 196.707 248.425 198.933 245.904C201.347 243.222 203.617 240.62 205.522 240.62C206.386 240.651 207.236 240.856 208.02 241.223C208.803 241.59 209.504 242.112 210.081 242.757C210.752 243.365 211.279 243.847 211.869 243.847C212.334 243.615 213.442 240.692 214.328 238.34C216.402 232.887 218.744 226.718 221.667 226.718C224.26 226.718 226.137 230.589 227.925 234.344C229.195 236.946 230.607 239.905 231.778 239.905C232.95 239.905 234.112 238.179 235.292 236.329C236.74 234.094 238.376 231.573 240.754 231.573H240.817V232.467C238.904 232.467 237.446 234.657 236.052 236.812C234.657 238.966 233.486 240.763 231.787 240.763C230.089 240.763 228.712 237.956 227.13 234.693C225.547 231.43 223.679 227.541 221.649 227.541C219.343 227.541 216.822 234.201 215.15 238.609C213.478 243.016 212.763 244.688 211.851 244.688C210.931 244.552 210.094 244.08 209.5 243.365C209.002 242.797 208.394 242.336 207.714 242.009C207.033 241.682 206.294 241.495 205.54 241.46C204.038 241.46 201.794 243.99 199.621 246.449C197.038 249.354 194.597 252.108 192.469 252.108C190.341 252.108 188.5 250.177 186.801 248.317C185.425 246.807 184.119 245.376 182.886 245.376C181.652 245.376 180.311 247.343 178.997 249.229C177.298 251.679 175.546 254.209 173.293 254.209C171.673 254.172 170.076 253.82 168.59 253.172C167.028 252.497 165.348 252.135 163.647 252.108C159.57 252.162 154.984 256.203 154.939 256.247Z" fill="#263238"/>
<path d="M246.681 265.822H154.707C154.588 265.822 154.474 265.775 154.391 265.691C154.307 265.607 154.26 265.494 154.26 265.375V216.759C154.26 216.641 154.307 216.527 154.391 216.443C154.474 216.359 154.588 216.312 154.707 216.312C154.825 216.312 154.939 216.359 155.023 216.443C155.107 216.527 155.154 216.641 155.154 216.759V264.928H246.681C246.8 264.928 246.914 264.975 246.997 265.059C247.081 265.143 247.128 265.256 247.128 265.375C247.128 265.494 247.081 265.607 246.997 265.691C246.914 265.775 246.8 265.822 246.681 265.822Z" fill="#263238"/>
<g opacity="0.5">
<path d="M246.681 265.822H154.707C154.588 265.822 154.474 265.775 154.391 265.691C154.307 265.607 154.26 265.494 154.26 265.375V216.759C154.26 216.641 154.307 216.527 154.391 216.443C154.474 216.359 154.588 216.312 154.707 216.312C154.825 216.312 154.939 216.359 155.023 216.443C155.107 216.527 155.154 216.641 155.154 216.759V264.928H246.681C246.8 264.928 246.914 264.975 246.997 265.059C247.081 265.143 247.128 265.256 247.128 265.375C247.128 265.494 247.081 265.607 246.997 265.691C246.914 265.775 246.8 265.822 246.681 265.822Z" fill="white"/>
</g>
<g opacity="0.3">
<path d="M288.86 223.929H266.832V224.823H288.86V223.929Z" fill="black"/>
<path d="M288.86 226.468H266.832V227.362H288.86V226.468Z" fill="black"/>
<path d="M288.86 228.998H266.832V229.892H288.86V228.998Z" fill="black"/>
<path d="M279.92 231.537H266.832V232.431H279.92V231.537Z" fill="black"/>
</g>
<g opacity="0.3">
<path d="M288.86 238.689H266.832V239.583H288.86V238.689Z" fill="black"/>
<path d="M288.86 241.219H266.832V242.113H288.86V241.219Z" fill="black"/>
<path d="M288.86 243.758H266.832V244.652H288.86V243.758Z" fill="black"/>
<path d="M273.662 246.297H266.832V247.191H273.662V246.297Z" fill="black"/>
</g>
<g opacity="0.3">
<path d="M288.86 253.449H266.832V254.343H288.86V253.449Z" fill="black"/>
<path d="M288.86 255.979H266.832V256.873H288.86V255.979Z" fill="black"/>
<path d="M288.86 258.518H266.832V259.412H288.86V258.518Z" fill="black"/>
<path d="M284.39 261.048H266.832V261.942H284.39V261.048Z" fill="black"/>
</g>
<path d="M325.926 79.4408H297.702C295.126 79.4432 292.657 80.4681 290.836 82.2902C289.016 84.1124 287.993 86.5828 287.993 89.1586V116.613C287.993 119.188 289.016 121.658 290.837 123.479C292.658 125.299 295.127 126.322 297.702 126.322H313.427L318.21 136.576L319.998 126.322H325.988C328.564 126.322 331.034 125.3 332.857 123.479C334.679 121.659 335.704 119.189 335.706 116.613V89.1586C335.706 87.8772 335.453 86.6084 334.96 85.4253C334.468 84.2421 333.747 83.1681 332.838 82.2649C331.929 81.3617 330.85 80.6472 329.664 80.1625C328.477 79.6778 327.207 79.4326 325.926 79.4408Z" fill="#FF4040"/>
<path d="M318.568 104.044C319.694 101.12 322.448 99.4575 324.737 100.334C327.025 101.21 327.955 104.294 326.837 107.217C325.72 110.141 322.949 111.795 320.669 110.919C318.389 110.042 317.442 106.967 318.568 104.044Z" fill="#FF4040"/>
<path d="M300.026 97.0347L303.853 86.718C303.853 86.718 308.609 93.9951 314.25 96.1586L312.283 101.281L311.97 102.086L310.003 107.217C304.362 105.045 295.959 107.217 295.959 107.217L300.026 97.0347Z" fill="#FF4040"/>
<path opacity="0.8" d="M318.568 104.044C319.694 101.12 322.448 99.4575 324.737 100.334C327.025 101.21 327.955 104.294 326.837 107.217C325.72 110.141 322.949 111.795 320.669 110.919C318.389 110.042 317.442 106.967 318.568 104.044Z" fill="white"/>
<path opacity="0.8" d="M300.026 97.0347L303.853 86.718C303.853 86.718 308.609 93.9951 314.25 96.1586L312.283 101.281L311.97 102.086L310.003 107.217C304.362 105.045 295.959 107.217 295.959 107.217L300.026 97.0347Z" fill="white"/>
<path d="M319.73 109.595C319.73 109.595 316.753 115.576 313.526 118.071C313.42 118.162 313.285 118.212 313.146 118.212C313.006 118.212 312.871 118.162 312.766 118.071L309.19 114.79C309.131 114.728 309.086 114.654 309.058 114.574C309.03 114.493 309.02 114.407 309.028 114.322C309.037 114.237 309.063 114.155 309.107 114.081C309.15 114.008 309.209 113.944 309.279 113.896C310.665 113.002 313.874 110.847 315.537 108.21C317.719 104.696 319.73 109.595 319.73 109.595Z" fill="#263238"/>
<path d="M296.048 107.53C297.344 108.031 300.196 103.74 302.413 97.9556C304.63 92.1714 305.39 87.0845 304.094 86.5839C302.798 86.0833 299.955 90.3745 297.729 96.1586C295.503 101.943 294.761 107.03 296.048 107.53Z" fill="white"/>
<path opacity="0.4" d="M303.826 89.0602C303.58 91.5964 302.978 94.0853 302.038 96.4536L301.671 97.4281C301.564 97.6963 301.466 97.9734 301.35 98.2327C300.461 100.6 299.259 102.837 297.774 104.884C297.157 105.653 296.629 106.028 296.272 105.885C295.235 105.492 295.977 101.058 297.926 95.9887C299.874 90.9198 302.288 87.1292 303.29 87.5226C303.692 87.612 303.844 88.202 303.826 89.0602Z" fill="black"/>
<path opacity="0.2" d="M303.826 89.0602C303.58 91.5964 302.978 94.0853 302.038 96.4536L301.671 97.4281C301.564 97.6963 301.466 97.9734 301.349 98.2327C300.461 100.6 299.259 102.837 297.773 104.884C298.071 102.014 298.801 99.2046 299.937 96.552C300.868 93.8815 302.178 91.3586 303.826 89.0602Z" fill="black"/>
<path d="M321.295 111.848C321.295 111.848 322.448 110.749 324.182 106.243C326.051 101.371 325.8 100.119 325.8 100.119L313.204 95.2825C313.204 95.2825 313.293 96.9364 311.541 101.54C309.789 106.145 308.698 107.039 308.698 107.039L321.295 111.848Z" fill="#263238"/>
<path d="M301.376 98.2327C301.493 97.9645 301.591 97.6963 301.698 97.4191C301.805 97.142 301.948 96.7665 302.065 96.4447L300.804 96.239C300.67 96.2209 300.534 96.2515 300.421 96.3254C300.308 96.3993 300.225 96.5114 300.187 96.6413L300.116 96.8291C300.056 96.9496 300.042 97.0876 300.077 97.2175C300.111 97.3475 300.192 97.4604 300.304 97.5353L301.376 98.2327Z" fill="white"/>
<path opacity="0.2" d="M301.376 98.2327C301.493 97.9645 301.591 97.6963 301.698 97.4191C301.805 97.142 301.948 96.7665 302.065 96.4447L300.804 96.239C300.67 96.2209 300.534 96.2515 300.421 96.3254C300.308 96.3993 300.225 96.5114 300.187 96.6413L300.116 96.8291C300.056 96.9496 300.042 97.0876 300.077 97.2175C300.111 97.3475 300.192 97.4604 300.304 97.5353L301.376 98.2327Z" fill="black"/>
<path opacity="0.2" d="M321.295 111.848C321.295 111.848 322.448 110.749 324.182 106.243C326.051 101.371 325.8 100.119 325.8 100.119L313.204 95.2825C313.204 95.2825 313.293 96.9364 311.541 101.54C309.789 106.145 308.698 107.039 308.698 107.039L321.295 111.848Z" fill="white"/>
<path d="M332.586 366.799H326.194L325.934 351.995H332.327L332.586 366.799Z" fill="#E4897B"/>
<path d="M326.256 366.057H333.238C333.365 366.057 333.487 366.1 333.585 366.18C333.683 366.26 333.75 366.371 333.775 366.495L334.892 372.181C334.919 372.32 334.914 372.463 334.879 372.6C334.843 372.737 334.778 372.864 334.687 372.973C334.596 373.082 334.483 373.169 334.354 373.228C334.226 373.287 334.086 373.318 333.945 373.316C331.424 373.272 327.794 373.12 324.62 373.12C320.928 373.12 317.719 373.325 313.383 373.325C310.754 373.325 310.093 370.643 311.201 370.429C316.226 369.338 320.32 369.222 324.701 366.558C325.163 366.25 325.701 366.077 326.256 366.057Z" fill="#263238"/>
<path d="M334.687 361.99H323.378C322.171 347.408 318.237 298.793 318.014 282.164C317.862 268.844 318.836 241.934 319.426 227.148H341.508C340.328 241.854 338.236 268.862 337.494 283.666C336.707 299.964 335.152 347.578 334.687 361.99Z" fill="#FF4040"/>
<path opacity="0.7" d="M318.04 282.164C318.237 298.793 322.162 347.426 323.404 361.99H334.723C335.062 351.119 336.037 321.33 336.85 300.375C337.11 293.554 337.351 287.671 337.556 283.666C338.003 274.726 338.942 261.423 339.863 249.015C340.48 240.808 341.088 233.003 341.562 227.148H319.453C318.863 241.899 317.888 268.844 318.04 282.164Z" fill="white"/>
<path d="M321.751 359.737C321.697 359.737 322.251 364.207 322.251 364.207H335.42L335.876 360.193L321.751 359.737Z" fill="#FF4040"/>
<path opacity="0.1" d="M336.814 300.384C337.074 293.563 337.315 287.68 337.521 283.675C337.968 274.735 338.656 264.839 339.577 252.43C337.083 251.733 333.006 249.927 332.21 248.541L335.107 252.421C334.624 261.942 335.178 284.212 336.814 300.384Z" fill="black"/>
<path d="M355.955 366.799H349.563L348.642 351.995H355.034L355.955 366.799Z" fill="#E4897B"/>
<path d="M357.484 361.99H346.175C345.522 356.885 344.387 347.614 343.081 336.958C340.703 317.29 337.923 292.937 337.324 282.129C336.958 275.397 336.716 265.187 336.564 254.826C336.412 244.688 336.35 234.416 336.314 227.112H356.876C357.216 245.421 356.965 268.817 356.876 283.622C356.769 299.964 357.314 347.578 357.484 361.99Z" fill="#FF4040"/>
<path opacity="0.7" d="M357.484 361.99H346.175C345.522 356.885 344.387 347.614 343.081 336.958C340.703 317.29 337.923 292.937 337.324 282.129C336.958 275.397 336.716 265.187 336.564 254.826C336.412 244.688 336.35 234.416 336.314 227.112H356.876C357.216 245.421 356.965 268.817 356.876 283.622C356.769 299.964 357.314 347.578 357.484 361.99Z" fill="white"/>
<path d="M344.539 359.737C344.494 359.737 345.236 364.207 345.236 364.207H358.413L358.691 360.193L344.539 359.737Z" fill="#FF4040"/>
<path opacity="0.6" d="M321.751 359.737C321.697 359.737 322.251 364.207 322.251 364.207H335.42L335.876 360.193L321.751 359.737Z" fill="white"/>
<path opacity="0.6" d="M344.539 359.737C344.494 359.737 345.236 364.207 345.236 364.207H358.413L358.691 360.193L344.539 359.737Z" fill="white"/>
<path d="M349.554 366.057H356.536C356.664 366.056 356.787 366.1 356.887 366.179C356.986 366.259 357.055 366.371 357.081 366.495L358.449 372.181C358.487 372.317 358.493 372.459 358.465 372.598C358.438 372.736 358.378 372.866 358.291 372.976C358.204 373.087 358.092 373.175 357.964 373.235C357.836 373.294 357.696 373.322 357.555 373.317C355.034 373.272 351.396 373.12 348.231 373.12C344.53 373.12 341.338 373.325 336.993 373.325C334.374 373.325 333.596 370.643 334.687 370.429C339.666 369.338 343.752 369.222 348.025 366.558C348.476 366.247 349.007 366.073 349.554 366.057Z" fill="#263238"/>
<path d="M288.708 186.488L281.744 181.571L286.956 176.207C286.956 176.207 292.32 178.961 291.793 183.896L288.708 186.488Z" fill="#E4897B"/>
<path d="M279.008 176.163L283.845 173.123L286.956 176.252L281.744 181.571L279.008 176.163Z" fill="#E4897B"/>
<path d="M323.02 173.803C316.404 175.751 313.186 187.365 307.706 198.334L291.828 182.564L286.786 187.034C286.786 187.034 301.323 210.117 308.189 210.126C316.744 210.126 325.639 186.327 325.639 186.327L323.02 173.803Z" fill="#263238"/>
<path opacity="0.1" d="M325.639 186.345C325.639 186.345 324.227 190.109 321.992 194.651C319.828 199.049 316.878 204.181 313.687 207.283C311.899 209.026 310.03 210.135 308.18 210.135C301.323 210.135 286.795 187.043 286.795 187.043L291.828 182.573L307.706 198.343C313.15 187.373 316.404 175.76 323.02 173.811L325.639 186.345Z" fill="white"/>
<path opacity="0.2" d="M321.992 194.651C319.828 199.049 316.878 204.181 313.687 207.283C314.035 196.76 319.194 186.488 319.194 186.488C320.637 189.006 321.587 191.777 321.992 194.651Z" fill="black"/>
<path d="M360.452 175.582C354.82 206.872 356.876 227.156 356.876 227.156C356.876 227.156 330.226 227.764 319.462 227.156C313.722 189.197 323.038 173.803 323.038 173.803C325.848 173.237 328.69 172.846 331.549 172.631C332.148 172.631 332.765 172.56 333.39 172.533C338.469 172.542 343.544 172.84 348.588 173.427C349.545 173.525 350.52 173.66 351.458 173.794C356.223 174.473 360.452 175.582 360.452 175.582Z" fill="#263238"/>
<path opacity="0.1" d="M360.452 175.573C359.755 179.462 359.173 183.181 358.664 186.694C357.913 192.255 357.403 197.351 357.073 201.892C356.974 203.269 356.885 204.574 356.813 205.87C356.545 210.546 356.474 214.524 356.482 217.752C356.482 223.813 356.849 227.148 356.849 227.148C356.849 227.148 330.199 227.764 319.435 227.148C313.687 189.197 323.011 173.803 323.011 173.803C325.821 173.238 328.664 172.849 331.522 172.64C332.121 172.587 332.738 172.56 333.364 172.533C338.443 172.542 343.517 172.841 348.562 173.427C349.509 173.525 350.475 173.66 351.422 173.794C356.223 174.473 360.452 175.573 360.452 175.573Z" fill="white"/>
<path d="M346.371 173.087C344.083 175.483 340.471 177.486 334.696 177.271C330.27 177.101 329.653 174.312 330.431 172.801C333.113 172.247 334.338 171.076 334.705 169.592C335.071 168.108 334.562 166.087 333.811 164.228L341.275 157.97L342.545 156.906C342.545 157.264 342.491 157.639 342.473 158.041C342.389 159.5 342.389 160.963 342.473 162.422C342.706 166.49 343.68 170.978 346.371 173.087Z" fill="#E4897B"/>
<path opacity="0.2" d="M342.465 162.377C341.07 165.22 338.629 168.635 334.705 169.583C335.116 168 334.562 166.078 333.811 164.219L341.276 157.961C341.678 157.961 342.071 157.961 342.474 158.032C342.387 159.479 342.384 160.93 342.465 162.377Z" fill="black"/>
<path d="M338.826 178.04C337.476 178.809 336.144 179.578 334.767 180.364C334.22 190.56 334.197 200.777 334.696 210.975C334.016 212.119 333.346 213.264 332.684 214.426C331.79 213.165 330.968 211.905 330.127 210.626C330.659 200.469 331.706 190.344 333.265 180.293C332.8 179.399 332.371 178.505 331.889 177.611L335.92 176.154C336.877 176.78 337.851 177.414 338.826 178.04Z" fill="white"/>
<path opacity="0.2" d="M334.517 203.108C344.458 203.492 352.576 204.771 356.867 204.708C356.599 209.375 356.527 214.542 356.536 217.752C337.762 214.068 331.862 208.812 331.862 208.812L334.517 203.108Z" fill="black"/>
<path opacity="0.2" d="M358.691 186.694C357.94 192.255 357.43 197.35 357.099 201.892C353.523 194.597 356.205 185.8 356.205 185.8L358.691 186.694Z" fill="black"/>
<path d="M325.309 145.418C324.209 147.93 324.075 153.303 327.892 151.971C331.71 150.639 327.204 141.118 325.309 145.418Z" fill="#263238"/>
<path d="M343.618 150.97C343.287 157.684 343.439 161.626 340.087 165.077C335.044 170.271 326.677 167.223 325.023 160.527C323.503 154.501 324.299 144.542 330.843 141.851C332.293 141.256 333.871 141.038 335.429 141.218C336.986 141.398 338.473 141.971 339.749 142.882C341.025 143.793 342.05 145.012 342.726 146.427C343.403 147.841 343.71 149.404 343.618 150.97Z" fill="#E4897B"/>
<path d="M333.462 152.874C333.462 153.419 333.185 153.857 332.827 153.857C332.47 153.857 332.175 153.419 332.175 152.874C332.175 152.329 332.452 151.882 332.809 151.882C333.167 151.882 333.462 152.32 333.462 152.874Z" fill="#263238"/>
<path d="M327.267 152.874C327.267 153.419 326.98 153.866 326.623 153.866C326.265 153.866 325.97 153.428 325.97 152.883C325.97 152.338 326.247 151.891 326.605 151.891C326.963 151.891 327.258 152.338 327.267 152.874Z" fill="#263238"/>
<path d="M329.233 153.151C328.578 154.768 327.702 156.288 326.632 157.666C327.011 157.916 327.438 158.084 327.887 158.158C328.335 158.232 328.794 158.211 329.233 158.095V153.151Z" fill="#DE5753"/>
<path d="M335.33 150.871C335.273 150.879 335.215 150.871 335.162 150.849C335.108 150.827 335.062 150.792 335.026 150.746C334.789 150.421 334.478 150.155 334.12 149.97C333.761 149.785 333.365 149.687 332.961 149.682C332.876 149.687 332.793 149.66 332.728 149.605C332.663 149.55 332.622 149.472 332.613 149.387C332.609 149.345 332.614 149.302 332.627 149.262C332.639 149.222 332.66 149.184 332.688 149.152C332.715 149.119 332.749 149.093 332.786 149.073C332.824 149.054 332.865 149.042 332.908 149.039C333.419 149.037 333.924 149.155 334.38 149.385C334.837 149.615 335.233 149.95 335.536 150.362C335.572 150.405 335.595 150.458 335.604 150.513C335.612 150.569 335.606 150.626 335.585 150.678C335.564 150.73 335.529 150.775 335.484 150.809C335.439 150.844 335.386 150.865 335.33 150.871Z" fill="#263238"/>
<path d="M324.567 150.764C324.508 150.781 324.446 150.781 324.388 150.764C324.35 150.746 324.315 150.72 324.287 150.689C324.259 150.658 324.237 150.621 324.223 150.581C324.209 150.541 324.203 150.499 324.205 150.457C324.207 150.415 324.218 150.373 324.236 150.335C324.448 149.876 324.766 149.475 325.164 149.164C325.562 148.853 326.028 148.641 326.525 148.547C326.608 148.539 326.692 148.563 326.758 148.615C326.825 148.666 326.869 148.741 326.882 148.824C326.895 148.908 326.874 148.994 326.824 149.063C326.773 149.132 326.698 149.178 326.614 149.191C326.22 149.267 325.851 149.439 325.539 149.692C325.228 149.944 324.983 150.27 324.826 150.639C324.796 150.68 324.757 150.712 324.712 150.734C324.667 150.756 324.617 150.766 324.567 150.764Z" fill="#263238"/>
<path d="M333.078 145.588C333.078 145.588 334.928 144.274 335.76 145.695C336.591 147.117 336.555 150.925 336.555 150.925L336.922 150.246C336.922 150.246 339.3 158.721 342.76 156.593C346.219 154.465 351.297 145.865 343.224 141.467C343.224 141.467 342.33 139.419 337.029 138.409C331.728 137.399 325.246 140.698 324.146 144.22C323.047 147.742 324.585 149.709 324.585 149.709C324.762 148.942 325.113 148.226 325.613 147.617C325.683 147.978 325.841 148.315 326.074 148.599C326.306 148.883 326.605 149.105 326.945 149.244C326.89 148.524 327.039 147.802 327.374 147.161C327.545 147.786 327.85 148.365 328.268 148.86C328.652 145.23 331.12 144.488 331.906 144.515C332.191 144.543 332.46 144.663 332.671 144.856C332.882 145.05 333.025 145.306 333.078 145.588Z" fill="#263238"/>
<path d="M346.273 156.53C346.031 157.329 345.632 158.07 345.099 158.712C344.566 159.354 343.911 159.883 343.171 160.267C341.177 161.287 339.72 159.606 339.881 157.487C340.033 155.583 341.24 152.758 343.457 152.624C343.933 152.607 344.406 152.708 344.833 152.917C345.261 153.127 345.63 153.438 345.909 153.825C346.187 154.211 346.366 154.66 346.43 155.132C346.493 155.604 346.439 156.084 346.273 156.53Z" fill="#E4897B"/>
<path d="M329.448 160.348C330.024 160.95 330.555 161.592 331.039 162.27L331.433 162.073C333.221 161.179 333.739 160.178 333.793 159.329C333.801 158.918 333.716 158.512 333.542 158.14C333.45 157.926 333.327 157.727 333.176 157.55C332.321 158.591 331.255 159.438 330.047 160.035C329.689 160.241 329.448 160.348 329.448 160.348Z" fill="#263238"/>
<path d="M330.047 160.026L330.53 160.58C332.21 159.731 333.274 158.908 333.542 158.131C333.45 157.917 333.327 157.718 333.176 157.541C332.321 158.582 331.255 159.429 330.047 160.026Z" fill="white"/>
<path d="M331.433 162.073C333.221 161.179 333.739 160.178 333.793 159.329C333.117 159.682 332.512 160.154 332.005 160.723C331.678 161.102 331.478 161.575 331.433 162.073Z" fill="#A24E3F"/>
<path d="M345.299 170.352C345.299 170.352 343.198 173.034 335.652 175.582C334.406 174.237 333.631 172.524 333.444 170.7L329.448 172.488C329.448 172.488 328.232 176.145 330.047 178.746L335.608 176.261L339.872 179.891C339.872 179.891 346.818 175.474 348.07 173.284L345.299 170.352Z" fill="#263238"/>
<path d="M333.301 218.199H314.25C313.888 218.193 313.541 218.055 313.275 217.809C313.009 217.563 312.844 217.227 312.811 216.866L310.129 191.584C310.111 191.415 310.129 191.243 310.183 191.082C310.236 190.92 310.323 190.771 310.438 190.645C310.552 190.519 310.693 190.419 310.849 190.352C311.005 190.284 311.174 190.25 311.344 190.252H330.387C330.75 190.257 331.098 190.396 331.365 190.641C331.633 190.887 331.8 191.223 331.835 191.584L334.517 216.866C334.536 217.036 334.519 217.208 334.466 217.371C334.413 217.533 334.326 217.682 334.211 217.808C334.096 217.935 333.955 218.035 333.798 218.102C333.641 218.169 333.472 218.202 333.301 218.199Z" fill="#263238"/>
<path opacity="0.6" d="M333.301 218.199H314.25C313.888 218.193 313.541 218.055 313.275 217.809C313.009 217.563 312.844 217.227 312.811 216.866L310.129 191.584C310.111 191.415 310.129 191.243 310.183 191.082C310.236 190.92 310.323 190.771 310.438 190.645C310.552 190.519 310.693 190.419 310.849 190.352C311.005 190.284 311.174 190.25 311.344 190.252H330.387C330.75 190.257 331.098 190.396 331.365 190.641C331.633 190.887 331.8 191.223 331.835 191.584L334.517 216.866C334.536 217.036 334.519 217.208 334.466 217.371C334.413 217.533 334.326 217.682 334.211 217.808C334.096 217.935 333.955 218.035 333.798 218.102C333.641 218.169 333.472 218.202 333.301 218.199Z" fill="white"/>
<path opacity="0.2" d="M332.505 218.199H314.25C313.888 218.193 313.541 218.055 313.275 217.809C313.009 217.563 312.844 217.227 312.811 216.866L310.129 191.584C310.111 191.415 310.129 191.243 310.183 191.082C310.236 190.92 310.323 190.771 310.438 190.645C310.552 190.519 310.693 190.419 310.849 190.352C311.005 190.284 311.174 190.25 311.344 190.252H329.618C329.98 190.259 330.328 190.398 330.594 190.644C330.861 190.889 331.029 191.224 331.066 191.584L333.748 216.866C333.768 217.039 333.75 217.213 333.695 217.377C333.641 217.542 333.552 217.692 333.434 217.819C333.316 217.946 333.171 218.045 333.011 218.111C332.851 218.176 332.678 218.206 332.505 218.199Z" fill="white"/>
<path d="M321.402 202.16C321.137 202.155 320.874 202.206 320.631 202.31C320.388 202.415 320.169 202.57 319.991 202.765C319.812 202.961 319.677 203.192 319.595 203.444C319.513 203.696 319.486 203.962 319.516 204.225C319.57 204.784 319.828 205.302 320.24 205.683C320.652 206.064 321.19 206.28 321.751 206.29C322.015 206.296 322.278 206.245 322.522 206.14C322.765 206.036 322.983 205.881 323.162 205.685C323.34 205.49 323.475 205.259 323.557 205.007C323.639 204.755 323.666 204.488 323.637 204.225C323.076 204.215 322.538 203.999 322.126 203.618C321.714 203.237 321.457 202.719 321.402 202.16Z" fill="#263238"/>
<path opacity="0.3" d="M325.523 192.255H315.457C315.209 192.251 314.966 192.178 314.758 192.044C314.549 191.91 314.382 191.719 314.277 191.495L313.678 190.252H326.954L326.569 191.495C326.503 191.719 326.364 191.915 326.175 192.052C325.986 192.189 325.757 192.26 325.523 192.255Z" fill="black"/>
<path d="M328.009 201.758L323.61 201.391L323.798 207.247L327.499 209.187L335.992 208.409L336.68 204.467C333.864 200.372 328.009 201.758 328.009 201.758Z" fill="#E4897B"/>
<path d="M355.955 177.432C351.485 183.1 356.393 194.195 358.744 206.21L336.546 203.367L335.25 209.992C335.25 209.992 360.845 219.45 366.29 215.275C373.084 210.072 368.677 191.137 365.163 181.813C364.311 179.264 362.647 177.066 360.425 175.555C359.587 175.513 358.75 175.66 357.977 175.985C357.203 176.31 356.512 176.805 355.955 177.432Z" fill="#263238"/>
<path opacity="0.1" d="M355.955 177.432C351.485 183.1 356.393 194.195 358.744 206.21L336.546 203.367L335.25 209.992C335.25 209.992 360.845 219.45 366.29 215.275C373.084 210.072 368.677 191.137 365.163 181.813C364.311 179.264 362.647 177.066 360.425 175.555C359.587 175.513 358.75 175.66 357.977 175.985C357.203 176.31 356.512 176.805 355.955 177.432Z" fill="white"/>
<path d="M343.135 228.238C347.802 228.173 352.465 228.033 357.126 227.818C357.126 228.614 357.207 229.418 357.242 230.214C352.54 230.44 347.838 230.577 343.135 230.625V228.238Z" fill="#263238"/>
<path d="M324.522 230.428C322.734 230.363 320.946 230.291 319.158 230.214L319.265 227.818C321.053 227.907 322.788 227.97 324.558 228.033L324.522 230.428Z" fill="#263238"/>
<path d="M325.327 228.059C330.881 228.238 336.436 228.301 341.991 228.247V230.652C336.436 230.706 330.881 230.646 325.327 230.473V228.059Z" fill="#263238"/>
<path d="M330.038 230.867L334.24 230.947C334.269 230.949 334.299 230.946 334.327 230.936C334.355 230.926 334.381 230.911 334.403 230.891C334.425 230.871 334.442 230.846 334.454 230.819C334.466 230.792 334.472 230.762 334.472 230.732V228.274C334.47 228.215 334.446 228.16 334.404 228.118C334.363 228.077 334.307 228.053 334.249 228.05L330.047 227.97C330.018 227.969 329.989 227.973 329.962 227.984C329.935 227.994 329.91 228.01 329.889 228.03C329.868 228.05 329.852 228.074 329.841 228.1C329.829 228.127 329.823 228.156 329.823 228.185V230.652C329.823 230.709 329.846 230.763 329.886 230.804C329.926 230.844 329.981 230.867 330.038 230.867Z" fill="white"/>
<path d="M109.518 185.633C115.788 179.362 115.788 169.196 109.518 162.926C103.248 156.655 93.0814 156.655 86.8111 162.926C80.5407 169.196 80.5407 179.362 86.8111 185.633C93.0814 191.903 103.248 191.903 109.518 185.633Z" fill="#FF4040"/>
<path d="M100.539 170.87C100.539 169.52 99.377 168.599 97.5265 168.599C96.7677 168.556 96.0101 168.704 95.323 169.029C94.6359 169.353 94.0411 169.845 93.5929 170.459L91.2506 168.939C92.6005 167.106 94.7729 165.998 97.7857 165.998C101.362 165.998 103.695 167.616 103.695 170.387C103.695 174.321 99.5737 174.679 99.5737 177.539H96.552C96.552 173.955 100.539 173.284 100.539 170.87ZM96.1229 181.41C96.114 181.029 96.2189 180.653 96.4243 180.332C96.6296 180.01 96.9261 179.757 97.2759 179.604C97.6257 179.451 98.013 179.406 98.3885 179.475C98.764 179.543 99.1107 179.722 99.3843 179.988C99.658 180.254 99.8462 180.595 99.9251 180.969C100.004 181.342 99.9699 181.73 99.8272 182.084C99.6845 182.438 99.4396 182.742 99.1238 182.956C98.808 183.171 98.4356 183.286 98.0539 183.288C97.8019 183.299 97.5504 183.258 97.3147 183.168C97.079 183.079 96.8641 182.942 96.6832 182.766C96.5024 182.59 96.3594 182.379 96.263 182.146C96.1667 181.913 96.119 181.663 96.1229 181.41Z" fill="white"/>
<path d="M98.1612 185.746L95.9709 188.714L98.1612 195.267L100.36 188.714L98.1612 185.746Z" fill="#FF4040"/>
<path d="M111.777 313.276L113.386 373.325H111.115L108.469 313.276H111.777Z" fill="#263238"/>
<path d="M104.187 314.643H83.8661L77.4293 373.325H74.801L80.7282 310.468L104.187 311.094V314.643Z" fill="#263238"/>
<path d="M105.671 311.094H134.458H135.942L142.271 373.325H140.841L140.564 371.064L140.787 373.325H139.357L132.089 314.786H108.406L108.219 373.325H106.735H106.627H105.143L104.187 311.094H105.671Z" fill="#263238"/>
<path opacity="0.2" d="M106.627 373.325L105.662 311.094H135.942L142.271 373.325H140.841L133.564 314.786H108.406L108.219 373.325H106.627Z" fill="white"/>
<path opacity="0.2" d="M83.8661 314.643H82.2122L75.9364 373.325H77.4293L83.8661 314.643Z" fill="white"/>
<path d="M115.371 301.823L108.996 248.72C108.648 245.475 106.234 243.025 103.364 243.025H73.6835C73.3023 243.052 72.9474 243.23 72.6962 243.518C72.4451 243.806 72.3179 244.181 72.3425 244.563V300.116C72.3425 306.642 76.9734 311.935 82.7039 311.935H142.057C142.24 311.921 142.411 311.835 142.531 311.696C142.652 311.557 142.713 311.376 142.7 311.192C142.7 308.269 140.626 305.9 138.06 305.9H119.394C118.339 305.835 117.345 305.383 116.603 304.631C115.86 303.879 115.422 302.879 115.371 301.823Z" fill="#263238"/>
<path opacity="0.5" d="M72.3425 244.563V300.107C72.3425 306.642 76.9734 311.935 82.695 311.935H142.057C142.241 311.921 142.412 311.835 142.534 311.697C142.656 311.558 142.719 311.377 142.709 311.192C142.721 309.821 142.238 308.492 141.35 307.447C140.946 306.966 140.443 306.578 139.875 306.309C139.308 306.041 138.688 305.898 138.06 305.891H119.394C118.982 305.892 118.573 305.819 118.187 305.677C117.403 305.361 116.724 304.831 116.226 304.149C115.728 303.466 115.432 302.657 115.371 301.814L108.988 248.72C108.657 245.466 106.234 243.025 103.364 243.025H73.6835C73.4359 243.031 73.1952 243.107 72.9894 243.245C72.7836 243.383 72.6213 243.576 72.5213 243.803C72.4006 244.038 72.3392 244.299 72.3425 244.563Z" fill="white"/>
<path opacity="0.3" d="M77.8227 243.025V293.858C77.8227 300.384 82.4625 305.676 88.1841 305.676H118.187C117.403 305.361 116.724 304.831 116.226 304.149C115.728 303.466 115.432 302.657 115.371 301.814L108.988 248.72C108.657 245.466 106.234 243.025 103.364 243.025H77.8227Z" fill="white"/>
<path d="M115.63 279.187C114.864 277.101 113.95 275.073 112.894 273.117L87.5047 274.512C87.5047 274.512 78.4843 299.642 89.4 306.088C92.681 308.037 98.0986 308.77 104.062 308.931C105.705 308.97 107.339 308.68 108.869 308.079C110.399 307.478 111.793 306.577 112.97 305.429C114.147 304.282 115.083 302.91 115.722 301.396C116.362 299.882 116.692 298.255 116.694 296.611C116.694 296.611 116.676 283.398 115.63 279.187Z" fill="#263238"/>
<path d="M92.9045 297.416V307.536C101.943 310.146 120.708 309.154 131.856 308.242C134.278 308.045 136.537 306.943 138.184 305.155C139.83 303.368 140.744 301.026 140.742 298.596V290.282C140.744 288.935 140.334 287.62 139.567 286.512C138.8 285.405 137.713 284.558 136.451 284.086C131.087 282.048 121.253 279.017 110.919 279.178C106.122 279.242 101.543 281.191 98.172 284.603C94.801 288.016 92.9088 292.619 92.9045 297.416Z" fill="#263238"/>
<path d="M139.786 326.739C136.505 335.625 132.705 346.747 128.647 360.783L128.432 361.551L128.191 362.356L124.007 361.337L122.433 360.952C122.433 360.952 122.487 360.336 122.621 359.236C122.621 359.004 122.675 358.753 122.701 358.494C123.828 348.705 128.173 312.766 132.482 305.301C129.65 305.813 126.759 305.909 123.899 305.587C121.217 305.131 117.999 286.67 117.999 286.67C122.495 285.462 127.121 284.807 131.776 284.721H131.874C131.874 284.721 145.463 287.922 148.073 291.766C151.292 296.468 148.315 303.692 139.786 326.739Z" fill="#FFB573"/>
<path d="M134.368 373.325L124.534 368.998L121.432 365.53L120.475 366.835L119.304 366.325C118.75 361.972 120.869 359.933 121.986 359.013L122.317 358.753L122.442 358.655H122.496L122.648 358.539L122.737 358.485L128.101 360.863C128.101 360.863 128.191 361.149 128.361 361.605C128.897 363.116 130.229 366.576 131.695 368.417L131.883 368.641C132.044 368.842 132.227 369.025 132.428 369.186C136.621 372.449 134.368 373.325 134.368 373.325Z" fill="#FF4040"/>
<path d="M131.954 368.587C130.426 369.186 128.253 367.693 126.59 365.691C125.599 364.317 124.729 362.861 123.989 361.337C123.625 360.577 123.158 359.87 122.603 359.236C122.38 359.03 122.165 358.941 121.977 359.03L122.308 358.771L122.433 358.673H122.487L122.639 358.557L122.728 358.503C123.292 358.083 123.917 357.609 123.917 357.609L128.244 359.522C128.244 359.522 128.369 360.032 128.584 360.818C129.147 362.821 130.372 366.629 131.704 368.4L131.954 368.587Z" fill="#FFB573"/>
<path opacity="0.1" d="M139.786 326.739C136.505 335.625 132.705 346.747 128.647 360.783C129.21 362.785 130.435 366.594 131.767 368.364L131.954 368.587C132.115 368.789 132.298 368.972 132.5 369.133C136.621 372.449 134.368 373.325 134.368 373.325L124.534 368.998L121.432 365.53L120.475 366.835L119.304 366.325C118.75 361.972 120.869 359.933 121.986 359.012L122.317 358.753L122.442 358.655H122.496L122.648 358.539C123.774 348.749 128.119 312.811 132.428 305.346C129.597 305.858 126.705 305.954 123.846 305.632C121.164 305.176 117.945 286.715 117.945 286.715C122.441 285.506 127.068 284.852 131.722 284.766H131.82C131.82 284.766 130.175 284.918 127.94 287.734C127.94 287.734 137.068 289.432 139.562 294.26C140.59 296.164 140.358 310.433 139.786 326.739Z" fill="black"/>
<path d="M118.008 286.67C118.008 286.67 133.626 289.12 136.246 292.928C140.716 299.526 132.67 312.507 117.847 364.296L112.081 362.875C112.081 362.875 115.406 315.886 120.395 307.223C120.395 307.223 113.726 308.117 110.025 307.509C105.269 306.74 102.256 290.872 118.008 286.67Z" fill="#FFB573"/>
<path d="M111.133 372.995H112.412L112.76 371.412L116.998 373.325H127.726C127.726 373.325 129.433 371.609 124.329 370.241C124.079 370.173 123.836 370.081 123.604 369.964C120.878 368.695 117.007 364.377 117.007 364.377H111.124C110.945 364.649 110.784 364.933 110.641 365.226C109.962 366.54 108.88 369.222 111.133 372.995Z" fill="#FF4040"/>
<path d="M110.633 365.226C111.41 364.332 114.942 368.167 117.534 369.463C119.841 370.608 122.442 371.117 123.596 369.946C120.869 368.677 116.587 363.098 116.587 363.098H111.857C111.857 363.098 110.91 364.672 110.633 365.226Z" fill="#FFB573"/>
<path d="M146.768 283.55V285.678C146.768 286.223 146.124 286.447 145.588 286.447H103.016C102.47 286.447 101.809 286.223 101.809 285.678V283.55H146.768Z" fill="#263238"/>
<path opacity="0.4" d="M146.768 283.55V285.678C146.768 286.223 146.124 286.447 145.588 286.447H103.016C102.47 286.447 101.809 286.223 101.809 285.678V283.55H146.768Z" fill="white"/>
<path opacity="0.2" d="M146.768 283.55V285.678C146.768 286.223 146.124 286.447 145.588 286.447H117.507C116.962 286.447 116.309 286.223 116.309 285.678V283.55H146.768Z" fill="black"/>
<path d="M153.893 261.432L148.824 284.417C148.733 284.786 148.522 285.114 148.225 285.351C147.927 285.587 147.559 285.718 147.179 285.722H119.465C119.297 285.713 119.133 285.666 118.986 285.584C118.839 285.503 118.712 285.389 118.614 285.251C118.517 285.114 118.453 284.956 118.425 284.79C118.397 284.624 118.408 284.454 118.455 284.292L123.515 261.477C123.618 261.129 123.838 260.827 124.138 260.622C124.437 260.417 124.798 260.321 125.16 260.351H152.874C153.589 260.342 154.054 260.681 153.893 261.432Z" fill="#263238"/>
<path opacity="0.4" d="M153.893 261.432L148.824 284.417C148.733 284.786 148.522 285.115 148.225 285.351C147.927 285.587 147.559 285.718 147.179 285.722H120.44C120.267 285.719 120.098 285.675 119.946 285.595C119.793 285.516 119.661 285.402 119.56 285.262C119.459 285.123 119.391 284.962 119.362 284.792C119.333 284.622 119.344 284.448 119.394 284.283L124.463 261.468C124.563 261.118 124.782 260.815 125.082 260.609C125.383 260.403 125.745 260.309 126.108 260.342H152.874C153.589 260.342 154.054 260.681 153.893 261.432Z" fill="white"/>
<path opacity="0.2" d="M140.242 273.117C140.155 274.05 139.74 274.921 139.07 275.576C138.4 276.231 137.52 276.627 136.585 276.693C135.039 276.693 134.127 275.102 134.565 273.117C135.003 271.132 136.541 269.621 138.06 269.541C137.613 271.508 138.561 273.117 140.099 273.117H140.242Z" fill="black"/>
<path d="M115.013 235.497C119.787 239.547 124.534 244.241 130.122 247.048L130.202 247.093C129.657 246.975 129.089 247.015 128.566 247.209C127.82 247.476 127.191 247.996 126.787 248.679C126.384 249.361 126.232 250.163 126.358 250.946C126.383 251.116 126.441 251.28 126.528 251.429C124.74 248.505 122.254 245.913 120.055 243.231C117.606 240.397 115.147 237.518 112.716 234.63C112.401 234.25 112.236 233.768 112.254 233.275C112.272 232.782 112.47 232.313 112.811 231.956C113.152 231.6 113.612 231.381 114.104 231.342C114.595 231.302 115.085 231.445 115.478 231.743C118.518 234.076 121.459 236.499 124.311 239.056C127.306 241.845 130.408 244.42 132.759 247.888C132.964 248.226 133.137 248.583 133.278 248.952C133.525 249.577 133.607 250.254 133.518 250.92C133.429 251.586 133.171 252.218 132.769 252.756C132.367 253.293 131.833 253.719 131.219 253.992C130.606 254.265 129.932 254.377 129.263 254.316C128.708 254.253 128.16 254.137 127.627 253.968C120.574 251.348 114.977 246.369 109.524 241.452C105.787 237.697 111.035 232.082 115.031 235.569L115.013 235.497Z" fill="#E9B376"/>
<path d="M122.979 241.049C122.684 246.78 118.509 252.716 118.509 252.716L117.516 252.162L112.564 249.48C112.564 249.48 112.456 249.211 112.286 248.755C112.117 248.3 111.902 247.763 111.634 247.057C110.248 243.374 107.727 236.472 107.244 233.549C113.073 232.833 115.916 235.381 122.979 241.049Z" fill="#FF4040"/>
<path opacity="0.7" d="M122.979 241.049C122.684 246.78 118.509 252.716 118.509 252.716L117.516 252.162L112.564 249.48C112.564 249.48 112.456 249.211 112.286 248.755C112.117 248.3 111.902 247.763 111.634 247.057C110.248 243.374 107.727 236.472 107.244 233.549C113.073 232.833 115.916 235.381 122.979 241.049Z" fill="white"/>
<path opacity="0.2" d="M117.543 252.162L112.59 249.48C112.59 249.48 112.483 249.211 112.313 248.756C112.369 247.308 112.516 245.866 112.751 244.438C114.061 245.302 115.168 246.44 115.996 247.773C116.823 249.107 117.351 250.604 117.543 252.162Z" fill="black"/>
<path d="M82.9095 241.791C82.9095 241.934 82.9632 242.068 82.9989 242.211C84.2416 247.209 85.1624 251.473 85.8329 255.192C86.5706 259.078 87.0485 263.008 87.2633 266.957C87.3952 269.731 87.3175 272.51 87.0309 275.272L113.636 276.166C114.682 267.521 115.21 262.335 115.594 257.061C115.943 253.454 116.048 249.828 115.907 246.208C115.907 241.514 112.617 235.998 107.942 235.185C106.636 234.961 105.26 234.747 103.981 234.586L103.275 234.505C98.3643 234.003 93.406 234.247 88.5686 235.229C85.9313 235.846 82.2927 238.09 82.9095 241.791Z" fill="#FF4040"/>
<path opacity="0.7" d="M82.9095 241.791C82.9095 241.934 82.9632 242.068 82.9989 242.211C84.2416 247.209 85.1624 251.473 85.8329 255.192C86.5706 259.078 87.0485 263.008 87.2633 266.957C87.3952 269.731 87.3175 272.51 87.0309 275.272L113.636 276.166C114.682 267.521 115.21 262.335 115.594 257.061C115.943 253.454 116.048 249.828 115.907 246.208C115.907 241.514 112.617 235.998 107.942 235.185C106.636 234.961 105.26 234.747 103.981 234.586L103.275 234.505C98.3643 234.003 93.406 234.247 88.5686 235.229C85.9313 235.846 82.2927 238.09 82.9095 241.791Z" fill="white"/>
<path opacity="0.2" d="M87.2633 266.957C87.0456 263.008 86.5647 259.078 85.824 255.192C88.801 251.035 91.6618 247.549 91.6618 247.549C91.6618 247.549 97.9288 260.422 87.2633 266.957Z" fill="black"/>
<path d="M89.8917 247.048C89.5431 252.707 88.4702 261.45 88.8636 266.948L88.6669 266.251C88.4971 265.929 88.6133 266.251 88.801 266.439C90.9377 268.817 93.7091 270.667 96.3464 272.607C99.1893 274.646 103.382 277.462 106.314 279.473C106.789 279.719 107.146 280.142 107.308 280.651C107.47 281.16 107.423 281.712 107.177 282.187C106.932 282.661 106.508 283.018 105.999 283.18C105.49 283.342 104.938 283.295 104.464 283.049C102.506 282.289 100.638 281.44 98.7423 280.582C94.2723 278.356 82.8827 273.278 81.7027 268.272C80.4958 260.753 81.1573 253.699 81.8725 246.261C81.9816 245.194 82.51 244.214 83.3416 243.537C84.1732 242.86 85.2398 242.54 86.3068 242.65C87.3737 242.759 88.3537 243.287 89.031 244.119C89.7083 244.95 90.0276 246.017 89.9185 247.084L89.8917 247.048Z" fill="#E9B376"/>
<path d="M112.984 278.472L111.285 277.444C110.972 277.251 110.616 277.136 110.249 277.11C109.881 277.083 109.513 277.146 109.175 277.292L105.975 278.678C105.342 278.95 104.784 279.369 104.347 279.901C103.91 280.433 103.607 281.062 103.463 281.735L103.284 282.576C105.966 284.48 110.302 284.533 110.302 284.533L111.526 284.694C111.778 284.734 112.035 284.723 112.282 284.662C112.529 284.601 112.762 284.492 112.966 284.34C113.171 284.189 113.343 283.999 113.474 283.78C113.604 283.561 113.69 283.319 113.726 283.067L114.065 280.636C114.115 280.209 114.039 279.777 113.847 279.393C113.655 279.008 113.355 278.688 112.984 278.472Z" fill="#EBB376"/>
<path d="M88.8457 235.238C83.4817 236.481 81.506 240.79 80.308 250.105C82.695 252.841 90.7589 253.914 90.7589 253.914C90.7589 253.914 93.7985 239.932 88.8457 235.238Z" fill="#FF4040"/>
<path d="M90.3387 234.863C89.7308 234.943 91.8853 241.452 101.067 242.542C110.248 243.633 108.845 235.39 107.968 233.406C107.933 233.406 96.9364 233.933 90.3387 234.863Z" fill="#EBB376"/>
<path d="M90.6248 204.923C90.6248 204.923 95.3094 198.781 104.982 200.953C114.656 203.126 115.648 220.004 111.357 226.504C103.829 226.86 96.378 228.179 89.1855 230.429C89.1855 230.429 83.6337 218.592 85.2966 211.225C86.9594 203.859 90.6248 204.923 90.6248 204.923Z" fill="#263238"/>
<path d="M93.87 221.569C94.764 225.494 95.8457 232.655 93.2353 235.167C93.2353 235.167 96.9364 234.738 104.598 239.824C106.967 236.651 105.313 235.56 105.313 235.56C100.942 234.38 100.915 231.162 101.549 228.158L93.87 221.569Z" fill="#EBB376"/>
<path opacity="0.2" d="M97.0258 224.26L101.567 228.158C101.409 228.86 101.316 229.575 101.29 230.294C99.6184 229.999 97.2761 228.104 97.0258 226.361C96.897 225.666 96.897 224.954 97.0258 224.26Z" fill="black"/>
<path d="M90.8304 213.666C91.8048 219.987 92.082 222.669 95.5686 225.798C100.807 230.5 108.281 228.354 109.202 221.98C110.034 216.241 108.308 206.872 101.898 204.592C100.541 204.056 99.0647 203.892 97.6227 204.117C96.1807 204.343 94.8252 204.95 93.6966 205.875C92.5679 206.801 91.707 208.011 91.2031 209.381C90.6992 210.75 90.5705 212.23 90.8304 213.666Z" fill="#EBB376"/>
<path d="M98.8138 214.971C98.8764 215.499 99.1982 215.928 99.538 215.865C99.8777 215.803 100.11 215.409 100.048 214.873C99.985 214.337 99.6631 213.916 99.3234 213.934C98.9837 213.952 98.7602 214.435 98.8138 214.971Z" fill="#263238"/>
<path d="M105.492 214.497C105.546 215.025 105.867 215.454 106.207 215.391C106.547 215.329 106.779 214.935 106.726 214.399C106.672 213.863 106.341 213.443 106.002 213.46C105.662 213.478 105.385 213.961 105.492 214.497Z" fill="#263238"/>
<path d="M105.805 213.541L107.021 213.121C107.021 213.121 106.484 214.149 105.805 213.541Z" fill="#263238"/>
<path d="M103.543 215.749C104.146 216.949 104.897 218.07 105.778 219.084C105.53 219.283 105.242 219.425 104.932 219.499C104.623 219.574 104.301 219.578 103.99 219.513L103.543 215.749Z" fill="#D58745"/>
<path d="M97.446 211.663C97.4869 211.667 97.5281 211.662 97.5668 211.648C97.6055 211.634 97.6405 211.612 97.6695 211.583C97.9239 211.3 98.2459 211.086 98.6055 210.961C98.965 210.835 99.3505 210.804 99.7257 210.868C99.7645 210.877 99.8047 210.878 99.844 210.871C99.8833 210.864 99.9208 210.85 99.9542 210.828C99.9876 210.806 100.016 210.778 100.038 210.745C100.061 210.712 100.076 210.675 100.083 210.635C100.095 210.551 100.075 210.465 100.027 210.394C99.979 210.323 99.9069 210.272 99.824 210.251C99.3489 210.171 98.8613 210.211 98.4055 210.367C97.9497 210.523 97.54 210.791 97.2136 211.145C97.1562 211.203 97.1241 211.282 97.1241 211.364C97.1241 211.446 97.1562 211.525 97.2136 211.583C97.2449 211.611 97.2816 211.633 97.3215 211.647C97.3615 211.661 97.4038 211.666 97.446 211.663Z" fill="#263238"/>
<path d="M107.781 210.877C107.839 210.883 107.899 210.872 107.951 210.845C108.004 210.819 108.047 210.777 108.077 210.726C108.106 210.675 108.12 210.616 108.117 210.557C108.113 210.498 108.093 210.441 108.058 210.394C107.776 209.974 107.401 209.625 106.962 209.373C106.524 209.122 106.033 208.976 105.528 208.946C105.488 208.945 105.449 208.954 105.413 208.97C105.377 208.986 105.344 209.009 105.318 209.039C105.292 209.069 105.272 209.104 105.26 209.142C105.249 209.179 105.245 209.219 105.251 209.259C105.257 209.342 105.295 209.421 105.356 209.479C105.417 209.536 105.497 209.57 105.581 209.571C105.979 209.602 106.364 209.723 106.708 209.924C107.051 210.125 107.345 210.402 107.566 210.734C107.616 210.808 107.693 210.859 107.781 210.877Z" fill="#263238"/>
<path d="M99.1804 214.015L100.387 213.594C100.387 213.594 99.8598 214.623 99.1804 214.015Z" fill="#263238"/>
<path d="M92.4664 217.358C92.4664 217.358 97.0526 213.112 95.4434 207.176C95.4434 207.176 103.928 202.992 108.111 211.547C108.111 211.547 108.228 203.93 99.8509 203.126C91.4741 202.321 82.6592 214.301 92.6989 222.007L92.4664 217.358Z" fill="#263238"/>
<path d="M89.2301 218.95C89.9727 220.088 91.1366 220.885 92.4664 221.167C94.174 221.48 94.7819 219.781 94.1024 218.127C93.4945 216.643 91.8764 214.694 90.2582 215.123C88.6401 215.552 88.2825 217.519 89.2301 218.95Z" fill="#EBB376"/>
<path d="M109.363 215.186C109.325 215.184 109.289 215.172 109.259 215.149C109.229 215.127 109.206 215.096 109.193 215.061C105.134 204.243 94.9428 207.372 94.8355 207.408C94.7905 207.422 94.7417 207.418 94.6998 207.396C94.658 207.374 94.6264 207.337 94.612 207.292C94.6037 207.269 94.6001 207.245 94.6015 207.22C94.6029 207.196 94.6092 207.172 94.6201 207.151C94.631 207.129 94.6462 207.109 94.6648 207.094C94.6834 207.078 94.705 207.066 94.7282 207.059C94.8355 207.059 105.349 203.796 109.533 214.936C109.541 214.958 109.545 214.982 109.545 215.005C109.544 215.029 109.538 215.053 109.528 215.074C109.518 215.096 109.504 215.115 109.486 215.132C109.469 215.148 109.448 215.16 109.426 215.168L109.363 215.186Z" fill="#263238"/>
<path d="M103.525 222.213C103.4 222.213 100.521 222.159 99.4307 220.255C99.4046 220.206 99.3984 220.149 99.4133 220.096C99.4283 220.042 99.4634 219.997 99.5111 219.969C99.535 219.955 99.5616 219.945 99.5891 219.942C99.6166 219.938 99.6446 219.94 99.6714 219.948C99.6981 219.955 99.723 219.968 99.7447 219.986C99.7663 220.003 99.7842 220.025 99.7972 220.049C100.763 221.748 103.498 221.837 103.525 221.837C103.553 221.836 103.581 221.84 103.607 221.85C103.633 221.86 103.656 221.875 103.676 221.894C103.696 221.913 103.712 221.936 103.723 221.962C103.734 221.988 103.74 222.015 103.74 222.043C103.729 222.092 103.702 222.135 103.663 222.166C103.624 222.197 103.575 222.214 103.525 222.213Z" fill="#263238"/>
<path d="M105.349 251.143C105.299 251.142 105.251 251.123 105.215 251.089C100.096 246.45 95.9645 240.829 93.0654 234.559C93.0474 234.505 93.0504 234.447 93.0736 234.396C93.0968 234.344 93.1386 234.304 93.1906 234.282C93.2158 234.272 93.2428 234.267 93.2699 234.267C93.2971 234.267 93.324 234.273 93.3489 234.284C93.3738 234.295 93.3964 234.31 93.4153 234.33C93.4341 234.349 93.4489 234.373 93.4588 234.398C96.2779 240.502 100.28 245.987 105.233 250.535C105.662 248.702 107.432 239.914 103.552 233.683C103.522 233.636 103.512 233.58 103.524 233.527C103.536 233.473 103.568 233.426 103.615 233.397C103.661 233.367 103.717 233.357 103.771 233.369C103.824 233.38 103.871 233.413 103.901 233.459C108.371 240.567 105.581 250.883 105.555 250.991C105.546 251.025 105.528 251.057 105.503 251.082C105.478 251.107 105.446 251.125 105.412 251.134L105.349 251.143Z" fill="#263238"/>
<path d="M105.608 250.74L106.368 251.554C106.427 251.629 106.459 251.722 106.459 251.817C106.459 251.913 106.427 252.006 106.368 252.081L105.751 253.038C105.717 253.091 105.67 253.136 105.616 253.17C105.562 253.203 105.501 253.224 105.437 253.231C105.374 253.238 105.31 253.23 105.25 253.209C105.19 253.188 105.135 253.154 105.09 253.109L104.383 252.43C104.317 252.365 104.273 252.28 104.258 252.188C104.244 252.097 104.259 252.002 104.303 251.92L104.866 250.839C104.894 250.768 104.941 250.706 105.001 250.659C105.061 250.612 105.133 250.582 105.208 250.572C105.284 250.562 105.361 250.572 105.431 250.602C105.501 250.631 105.563 250.679 105.608 250.74Z" fill="white"/>
<path opacity="0.7" d="M88.8457 235.238C83.4817 236.481 81.506 240.79 80.308 250.105C82.695 252.841 90.7589 253.914 90.7589 253.914C90.7589 253.914 93.7985 239.932 88.8457 235.238Z" fill="white"/>
<path d="M116.98 233.459L114.807 227.916L110.337 232.735C110.337 232.735 112.572 237.563 115.004 236.311L116.98 233.459Z" fill="#EBB376"/>
<path d="M110.123 224.349L107.655 229.803L110.302 232.735L114.807 227.916L110.123 224.349Z" fill="#EBB376"/>
<path d="M123.685 252.197C124.662 252.745 125.678 253.22 126.725 253.619L127.619 253.932L128.173 254.084L128.441 254.155H128.513H128.691L129.067 254.209H129.255H129.514H130.05C130.355 254.178 130.655 254.112 130.944 254.012C131.355 253.868 131.739 253.657 132.08 253.386C132.482 253.069 132.817 252.674 133.063 252.224C133.179 252.01 133.275 251.786 133.349 251.554C133.404 251.381 133.446 251.205 133.474 251.026C133.509 250.852 133.53 250.676 133.537 250.499C133.546 250.386 133.546 250.272 133.537 250.159C133.527 249.955 133.503 249.752 133.465 249.551C133.42 249.317 133.357 249.087 133.278 248.863L133.09 248.407L132.92 248.067L132.759 247.799C132.431 247.261 132.06 246.749 131.65 246.27C131.302 245.841 130.953 245.457 130.613 245.072C129.925 244.321 129.237 243.615 128.539 242.927C127.145 241.559 125.75 240.245 124.311 238.966C121.459 236.409 118.518 233.987 115.478 231.653C115.085 231.356 114.595 231.213 114.104 231.252C113.612 231.292 113.152 231.51 112.811 231.867C112.47 232.223 112.272 232.693 112.254 233.186C112.236 233.679 112.401 234.161 112.716 234.541C115.147 237.42 117.606 240.298 120.046 243.123C121.253 244.554 122.478 245.957 123.622 247.388C124.212 248.094 124.776 248.8 125.303 249.498C125.562 249.837 125.813 250.186 126.036 250.517C126.214 250.774 126.376 251.043 126.519 251.321C126.494 251.283 126.476 251.24 126.465 251.196C126.424 251.086 126.391 250.972 126.367 250.856C126.34 250.712 126.322 250.565 126.313 250.418V250.168C126.315 250.018 126.33 249.868 126.358 249.721C126.384 249.576 126.42 249.432 126.465 249.292C126.531 249.084 126.618 248.883 126.725 248.693C126.95 248.293 127.254 247.943 127.619 247.665C127.917 247.435 128.249 247.251 128.602 247.119C128.833 247.036 129.073 246.982 129.317 246.959C129.436 246.945 129.556 246.945 129.675 246.959H129.952H130.149H130.238H130.175L130.05 246.905L129.612 246.708C128.995 246.404 128.307 245.984 127.61 245.546C126.152 244.733 121.843 251.214 123.685 252.197Z" fill="#E9B376"/>
</svg>
